<svg id="Calque_1" data-name="Calque 1" xmlns="http://www.w3.org/2000/svg" xmlns:xlink="http://www.w3.org/1999/xlink" viewBox="0 0 1920 1080"><defs><style>.cls-1{opacity:0.6;}.cls-2{fill:url(#Dégradé_sans_nom_90);}.cls-3{fill:url(#Dégradé_sans_nom_90-2);}.cls-4{fill:url(#Dégradé_sans_nom_90-3);}.cls-100,.cls-102,.cls-103,.cls-106,.cls-107,.cls-109,.cls-13,.cls-17,.cls-19,.cls-21,.cls-23,.cls-25,.cls-27,.cls-29,.cls-31,.cls-5,.cls-55,.cls-56,.cls-58,.cls-59,.cls-60,.cls-61,.cls-63,.cls-64,.cls-65,.cls-66,.cls-68,.cls-69,.cls-70,.cls-71,.cls-73,.cls-74,.cls-75,.cls-76,.cls-78,.cls-79,.cls-80,.cls-81,.cls-82,.cls-83,.cls-85,.cls-86,.cls-88,.cls-89,.cls-9,.cls-90,.cls-95,.cls-97{opacity:0.5;}.cls-100,.cls-102,.cls-103,.cls-106,.cls-107,.cls-109,.cls-13,.cls-17,.cls-19,.cls-21,.cls-23,.cls-25,.cls-27,.cls-29,.cls-31,.cls-35,.cls-5,.cls-55,.cls-56,.cls-58,.cls-59,.cls-60,.cls-61,.cls-63,.cls-64,.cls-65,.cls-66,.cls-68,.cls-69,.cls-70,.cls-71,.cls-73,.cls-74,.cls-75,.cls-76,.cls-78,.cls-79,.cls-80,.cls-81,.cls-82,.cls-83,.cls-85,.cls-86,.cls-88,.cls-89,.cls-9,.cls-95,.cls-97{isolation:isolate;}.cls-5{fill:url(#Dégradé_sans_nom_11);}.cls-6{fill:url(#Dégradé_sans_nom_90-4);}.cls-7{fill:url(#Dégradé_sans_nom_90-5);}.cls-8{fill:url(#Dégradé_sans_nom_90-6);}.cls-9{fill:url(#Dégradé_sans_nom_11-2);}.cls-10{fill:url(#Dégradé_sans_nom_90-7);}.cls-11{fill:url(#Dégradé_sans_nom_90-8);}.cls-12{fill:url(#Dégradé_sans_nom_90-9);}.cls-13{fill:url(#Dégradé_sans_nom_11-3);}.cls-14{fill:url(#Dégradé_sans_nom_90-10);}.cls-15{fill:url(#Dégradé_sans_nom_90-11);}.cls-16{fill:url(#Dégradé_sans_nom_90-12);}.cls-17{fill:url(#Dégradé_sans_nom_11-4);}.cls-18{fill:url(#Dégradé_sans_nom_55);}.cls-19{fill:url(#Dégradé_sans_nom_11-5);}.cls-20{fill:url(#Dégradé_sans_nom_55-2);}.cls-21{fill:url(#Dégradé_sans_nom_11-6);}.cls-22{fill:url(#Dégradé_sans_nom_55-3);}.cls-23{fill:url(#Dégradé_sans_nom_11-7);}.cls-24{fill:url(#Dégradé_sans_nom_55-4);}.cls-25{fill:url(#Dégradé_sans_nom_11-8);}.cls-26{fill:url(#Dégradé_sans_nom_55-5);}.cls-27{fill:url(#Dégradé_sans_nom_11-9);}.cls-28{fill:url(#Dégradé_sans_nom_55-6);}.cls-29{fill:url(#Dégradé_sans_nom_11-10);}.cls-30{fill:url(#Dégradé_sans_nom_55-7);}.cls-31{fill:url(#Dégradé_sans_nom_11-11);}.cls-32{fill:url(#Dégradé_sans_nom_3);}.cls-33{fill:url(#Dégradé_sans_nom_3-2);}.cls-34{fill:url(#Dégradé_sans_nom_55-8);}.cls-35{opacity:0.4;fill:url(#Dégradé_sans_nom_11-12);}.cls-36{fill:url(#Dégradé_sans_nom_11-13);}.cls-37{fill:url(#Dégradé_sans_nom_108);}.cls-38{fill:url(#Dégradé_sans_nom_11-14);}.cls-39{fill:url(#Dégradé_sans_nom_108-2);}.cls-40{fill:url(#Dégradé_sans_nom_11-15);}.cls-41{fill:url(#Dégradé_sans_nom_108-3);}.cls-42{fill:url(#Dégradé_sans_nom_11-16);}.cls-43{fill:url(#Dégradé_sans_nom_108-4);}.cls-44{fill:url(#Dégradé_sans_nom_11-17);}.cls-45{fill:url(#Dégradé_sans_nom_108-5);}.cls-46{fill:url(#Dégradé_sans_nom_5);}.cls-47{fill:url(#Dégradé_sans_nom_11-18);}.cls-48{fill:url(#Dégradé_sans_nom_108-6);}.cls-49{fill:url(#Dégradé_sans_nom_5-2);}.cls-50{fill:url(#Dégradé_sans_nom_11-19);}.cls-51{fill:url(#Dégradé_sans_nom_108-7);}.cls-52{fill:url(#Dégradé_sans_nom_5-3);}.cls-53{fill:url(#Dégradé_sans_nom_3-3);}.cls-54{fill:url(#Dégradé_sans_nom_3-4);}.cls-55{fill:url(#Dégradé_sans_nom_11-20);}.cls-56{fill:url(#Dégradé_sans_nom_11-21);}.cls-57{fill:url(#Dégradé_sans_nom_55-9);}.cls-58{fill:url(#Dégradé_sans_nom_11-22);}.cls-59{fill:url(#Dégradé_sans_nom_11-23);}.cls-60{fill:url(#Dégradé_sans_nom_11-24);}.cls-61{fill:url(#Dégradé_sans_nom_11-25);}.cls-62{fill:url(#Dégradé_sans_nom_55-10);}.cls-63{fill:url(#Dégradé_sans_nom_11-26);}.cls-64{fill:url(#Dégradé_sans_nom_11-27);}.cls-65{fill:url(#Dégradé_sans_nom_11-28);}.cls-66{fill:url(#Dégradé_sans_nom_11-29);}.cls-67{fill:url(#Dégradé_sans_nom_55-11);}.cls-68{fill:url(#Dégradé_sans_nom_11-30);}.cls-69{fill:url(#Dégradé_sans_nom_11-31);}.cls-70{fill:url(#Dégradé_sans_nom_11-32);}.cls-71{fill:url(#Dégradé_sans_nom_11-33);}.cls-72{fill:url(#Dégradé_sans_nom_55-12);}.cls-73{fill:url(#Dégradé_sans_nom_11-34);}.cls-74{fill:url(#Dégradé_sans_nom_11-35);}.cls-75{fill:url(#Dégradé_sans_nom_11-36);}.cls-76{fill:url(#Dégradé_sans_nom_11-37);}.cls-77{fill:url(#Dégradé_sans_nom_55-13);}.cls-78{fill:url(#Dégradé_sans_nom_11-38);}.cls-79{fill:url(#Dégradé_sans_nom_11-39);}.cls-80{fill:url(#Dégradé_sans_nom_11-40);}.cls-81{fill:url(#Dégradé_sans_nom_11-41);}.cls-82{fill:url(#Dégradé_sans_nom_11-42);}.cls-83{fill:url(#Dégradé_sans_nom_11-43);}.cls-84{fill:url(#Dégradé_sans_nom_55-14);}.cls-85{fill:url(#Dégradé_sans_nom_11-44);}.cls-86{fill:url(#Dégradé_sans_nom_11-45);}.cls-87{fill:url(#Dégradé_sans_nom_55-15);}.cls-88{fill:url(#Dégradé_sans_nom_11-46);}.cls-89{fill:url(#Dégradé_sans_nom_11-47);}.cls-91{fill:url(#Dégradé_sans_nom_55-16);}.cls-92{fill:url(#Dégradé_sans_nom_90-13);}.cls-93{fill:url(#Dégradé_sans_nom_91);}.cls-94{fill:url(#Dégradé_sans_nom_55-17);}.cls-95{fill:url(#Dégradé_sans_nom_11-48);}.cls-96{fill:url(#Dégradé_sans_nom_55-18);}.cls-97{fill:url(#Dégradé_sans_nom_11-49);}.cls-98{fill:url(#Dégradé_sans_nom_55-19);}.cls-99{fill:url(#Dégradé_sans_nom_55-20);}.cls-100{fill:url(#Dégradé_sans_nom_11-50);}.cls-101{fill:url(#Dégradé_sans_nom_55-21);}.cls-102{fill:url(#Dégradé_sans_nom_11-51);}.cls-103{fill:url(#Dégradé_sans_nom_11-52);}.cls-104{fill:url(#Dégradé_sans_nom_55-22);}.cls-105{fill:url(#Dégradé_sans_nom_11-53);}.cls-106{fill:url(#Dégradé_sans_nom_11-54);}.cls-107{fill:url(#Dégradé_sans_nom_11-55);}.cls-108{fill:url(#Dégradé_sans_nom_106);}.cls-109{fill:url(#Dégradé_sans_nom_11-56);}.cls-110{fill:url(#Dégradé_sans_nom_108-8);}</style><linearGradient id="Dégradé_sans_nom_90" x1="910.5" y1="1743.95" x2="910.5" y2="1721.95" gradientTransform="matrix(1, 0, 0, -1, 564, 2394)" gradientUnits="userSpaceOnUse"><stop offset="0" stop-color="#4d4d4d"/><stop offset="0.32" stop-color="#505050"/><stop offset="0.53" stop-color="#585858"/><stop offset="0.7" stop-color="#676767"/><stop offset="0.85" stop-color="#7b7b7b"/><stop offset="0.99" stop-color="#969696"/><stop offset="1" stop-color="#999"/></linearGradient><linearGradient id="Dégradé_sans_nom_90-2" x1="910" y1="1721.96" x2="910" y2="1709.98" xlink:href="#Dégradé_sans_nom_90"/><linearGradient id="Dégradé_sans_nom_90-3" x1="910" y1="1710" x2="910" y2="1490" xlink:href="#Dégradé_sans_nom_90"/><linearGradient id="Dégradé_sans_nom_11" x1="910.5" y1="1744.05" x2="910.5" y2="1739.03" gradientTransform="matrix(1, 0, 0, -1, 564, 2394)" gradientUnits="userSpaceOnUse"><stop offset="0"/><stop offset="1" stop-opacity="0"/></linearGradient><linearGradient id="Dégradé_sans_nom_90-4" x1="1270.5" y1="1743.95" x2="1270.5" y2="1721.95" xlink:href="#Dégradé_sans_nom_90"/><linearGradient id="Dégradé_sans_nom_90-5" x1="1271" y1="1721.96" x2="1271" y2="1709.98" xlink:href="#Dégradé_sans_nom_90"/><linearGradient id="Dégradé_sans_nom_90-6" x1="1271" y1="1710" x2="1271" y2="1490" xlink:href="#Dégradé_sans_nom_90"/><linearGradient id="Dégradé_sans_nom_11-2" x1="1270.5" y1="1744.05" x2="1270.5" y2="1739.03" xlink:href="#Dégradé_sans_nom_11"/><linearGradient id="Dégradé_sans_nom_90-7" x1="549.5" y1="1743.95" x2="549.5" y2="1721.95" xlink:href="#Dégradé_sans_nom_90"/><linearGradient id="Dégradé_sans_nom_90-8" x1="550" y1="1721.96" x2="550" y2="1709.98" xlink:href="#Dégradé_sans_nom_90"/><linearGradient id="Dégradé_sans_nom_90-9" x1="550" y1="1710" x2="550" y2="1490" xlink:href="#Dégradé_sans_nom_90"/><linearGradient id="Dégradé_sans_nom_11-3" x1="549.5" y1="1744.05" x2="549.5" y2="1739.03" xlink:href="#Dégradé_sans_nom_11"/><linearGradient id="Dégradé_sans_nom_90-10" x1="189.5" y1="1743.95" x2="189.5" y2="1721.95" xlink:href="#Dégradé_sans_nom_90"/><linearGradient id="Dégradé_sans_nom_90-11" x1="189" y1="1721.96" x2="189" y2="1709.98" xlink:href="#Dégradé_sans_nom_90"/><linearGradient id="Dégradé_sans_nom_90-12" x1="189" y1="1710" x2="189" y2="1490" xlink:href="#Dégradé_sans_nom_90"/><linearGradient id="Dégradé_sans_nom_11-4" x1="189.5" y1="1744.05" x2="189.5" y2="1739.03" xlink:href="#Dégradé_sans_nom_11"/><linearGradient id="Dégradé_sans_nom_55" x1="1019.08" y1="1869.39" x2="967.95" y2="1839.87" gradientTransform="matrix(1, 0, 0, -1, 564, 2394)" gradientUnits="userSpaceOnUse"><stop offset="0" stop-color="#999"/><stop offset="0.01" stop-color="#969696"/><stop offset="0.15" stop-color="#7b7b7b"/><stop offset="0.3" stop-color="#676767"/><stop offset="0.47" stop-color="#585858"/><stop offset="0.68" stop-color="#505050"/><stop offset="1" stop-color="#4d4d4d"/></linearGradient><linearGradient id="Dégradé_sans_nom_11-5" x1="993.5" y1="1883" x2="993.5" y2="1880.02" xlink:href="#Dégradé_sans_nom_11"/><linearGradient id="Dégradé_sans_nom_55-2" x1="1198.14" y1="1869.43" x2="1147.01" y2="1839.9" xlink:href="#Dégradé_sans_nom_55"/><linearGradient id="Dégradé_sans_nom_11-6" x1="1173.5" y1="1883" x2="1173.5" y2="1880.02" xlink:href="#Dégradé_sans_nom_11"/><linearGradient id="Dégradé_sans_nom_55-3" x1="839.08" y1="1869.39" x2="787.95" y2="1839.87" xlink:href="#Dégradé_sans_nom_55"/><linearGradient id="Dégradé_sans_nom_11-7" x1="813.5" y1="1883" x2="813.5" y2="1880.02" xlink:href="#Dégradé_sans_nom_11"/><linearGradient id="Dégradé_sans_nom_55-4" x1="659.08" y1="1869.39" x2="607.95" y2="1839.87" xlink:href="#Dégradé_sans_nom_55"/><linearGradient id="Dégradé_sans_nom_11-8" x1="633.5" y1="1883" x2="633.5" y2="1880.02" xlink:href="#Dégradé_sans_nom_11"/><linearGradient id="Dégradé_sans_nom_55-5" x1="479.14" y1="1869.42" x2="428.01" y2="1839.9" xlink:href="#Dégradé_sans_nom_55"/><linearGradient id="Dégradé_sans_nom_11-9" x1="453.5" y1="1883" x2="453.5" y2="1880.02" xlink:href="#Dégradé_sans_nom_11"/><linearGradient id="Dégradé_sans_nom_55-6" x1="299.08" y1="1869.39" x2="247.95" y2="1839.87" xlink:href="#Dégradé_sans_nom_55"/><linearGradient id="Dégradé_sans_nom_11-10" x1="274.5" y1="1883" x2="274.5" y2="1880.02" xlink:href="#Dégradé_sans_nom_11"/><linearGradient id="Dégradé_sans_nom_55-7" x1="121.08" y1="1869.39" x2="69.95" y2="1839.87" xlink:href="#Dégradé_sans_nom_55"/><linearGradient id="Dégradé_sans_nom_11-11" x1="95.5" y1="1883" x2="95.5" y2="1880.02" xlink:href="#Dégradé_sans_nom_11"/><linearGradient id="Dégradé_sans_nom_3" x1="1185.86" y1="2184.7" x2="151.14" y2="1587.3" gradientTransform="matrix(1, 0, 0, -1, 564, 2394)" gradientUnits="userSpaceOnUse"><stop offset="0" stop-color="#999"/><stop offset="0.49" stop-color="#767676"/><stop offset="1" stop-color="#4d4d4d"/></linearGradient><linearGradient id="Dégradé_sans_nom_3-2" x1="1185.86" y1="2123.7" x2="151.14" y2="1526.3" xlink:href="#Dégradé_sans_nom_3"/><linearGradient id="Dégradé_sans_nom_55-8" x1="668.5" y1="1825" x2="668.5" y2="1744" xlink:href="#Dégradé_sans_nom_55"/><linearGradient id="Dégradé_sans_nom_11-12" x1="-1288.11" y1="-1324.85" x2="-1832.5" y2="-1639.15" gradientTransform="matrix(1.07, 0, -1.5, 0.93, 902.68, 1956)" xlink:href="#Dégradé_sans_nom_11"/><linearGradient id="Dégradé_sans_nom_11-13" x1="732.5" y1="1841.93" x2="628.83" y2="1782.07" xlink:href="#Dégradé_sans_nom_11"/><linearGradient id="Dégradé_sans_nom_108" x1="678.05" y1="1941.28" x2="749.06" y2="1941.28" gradientTransform="matrix(1, 0, 0, -1, 564, 2394)" gradientUnits="userSpaceOnUse"><stop offset="0" stop-color="#4d4d4d"/><stop offset="0.28" stop-color="#5e5e5e"/><stop offset="0.84" stop-color="#8b8b8b"/><stop offset="1" stop-color="#999"/></linearGradient><linearGradient id="Dégradé_sans_nom_11-14" x1="549.28" y1="1841.91" x2="445.63" y2="1782.07" xlink:href="#Dégradé_sans_nom_11"/><linearGradient id="Dégradé_sans_nom_108-2" x1="494.05" y1="1941.28" x2="565.06" y2="1941.28" xlink:href="#Dégradé_sans_nom_108"/><linearGradient id="Dégradé_sans_nom_11-15" x1="366" y1="1841.93" x2="262.33" y2="1782.07" xlink:href="#Dégradé_sans_nom_11"/><linearGradient id="Dégradé_sans_nom_108-3" x1="310.96" y1="1941.28" x2="381.97" y2="1941.28" xlink:href="#Dégradé_sans_nom_108"/><linearGradient id="Dégradé_sans_nom_11-16" x1="182.8" y1="1841.93" x2="79.13" y2="1782.07" xlink:href="#Dégradé_sans_nom_11"/><linearGradient id="Dégradé_sans_nom_108-4" x1="128.05" y1="1941.28" x2="199.06" y2="1941.28" xlink:href="#Dégradé_sans_nom_108"/><linearGradient id="Dégradé_sans_nom_11-17" x1="1282.2" y1="1841.93" x2="1178.53" y2="1782.07" xlink:href="#Dégradé_sans_nom_11"/><linearGradient id="Dégradé_sans_nom_108-5" x1="1227.05" y1="1941.28" x2="1298.06" y2="1941.28" xlink:href="#Dégradé_sans_nom_108"/><linearGradient id="Dégradé_sans_nom_5" x1="1227.24" y1="1912.08" x2="1297.97" y2="1912.08" gradientTransform="matrix(1, 0, 0, -1, 564, 2394)" gradientUnits="userSpaceOnUse"><stop offset="0" stop-color="#4d4d4d"/><stop offset="0.27" stop-color="#505050"/><stop offset="0.48" stop-color="#5a5a5a"/><stop offset="0.68" stop-color="#6b6b6b"/><stop offset="0.87" stop-color="#838383"/><stop offset="1" stop-color="#999"/></linearGradient><linearGradient id="Dégradé_sans_nom_11-18" x1="915.7" y1="1841.93" x2="812.03" y2="1782.07" xlink:href="#Dégradé_sans_nom_11"/><linearGradient id="Dégradé_sans_nom_108-6" x1="860.96" y1="1941.28" x2="931.97" y2="1941.28" xlink:href="#Dégradé_sans_nom_108"/><linearGradient id="Dégradé_sans_nom_5-2" x1="861.32" y1="1912.08" x2="932.06" y2="1912.08" xlink:href="#Dégradé_sans_nom_5"/><linearGradient id="Dégradé_sans_nom_11-19" x1="1098.98" y1="1841.91" x2="995.33" y2="1782.07" xlink:href="#Dégradé_sans_nom_11"/><linearGradient id="Dégradé_sans_nom_108-7" x1="1044.05" y1="1941.28" x2="1115.06" y2="1941.28" xlink:href="#Dégradé_sans_nom_108"/><linearGradient id="Dégradé_sans_nom_5-3" x1="1044.32" y1="1912.08" x2="1115.06" y2="1912.08" xlink:href="#Dégradé_sans_nom_5"/><linearGradient id="Dégradé_sans_nom_3-3" x1="1185.86" y1="2154.7" x2="151.14" y2="1557.3" xlink:href="#Dégradé_sans_nom_3"/><linearGradient id="Dégradé_sans_nom_3-4" x1="1185.86" y1="2093.7" x2="151.14" y2="1496.3" xlink:href="#Dégradé_sans_nom_3"/><linearGradient id="Dégradé_sans_nom_11-20" x1="-907.66" y1="270.95" x2="-907.66" y2="267.85" gradientTransform="matrix(0, 1, 1, 0, 1080.1, 1445.66)" xlink:href="#Dégradé_sans_nom_11"/><linearGradient id="Dégradé_sans_nom_11-21" x1="2260.35" y1="131.57" x2="2260.35" y2="128.59" gradientTransform="matrix(0, -1, -1, 0, 1509.57, 2798.35)" xlink:href="#Dégradé_sans_nom_11"/><linearGradient id="Dégradé_sans_nom_55-9" x1="826.08" y1="1839.39" x2="774.95" y2="1809.87" xlink:href="#Dégradé_sans_nom_55"/><linearGradient id="Dégradé_sans_nom_11-22" x1="-907.66" y1="449.9" x2="-907.66" y2="446.92" gradientTransform="matrix(0, 1, 1, 0, 1080.1, 1445.66)" xlink:href="#Dégradé_sans_nom_11"/><linearGradient id="Dégradé_sans_nom_11-23" x1="2260.35" y1="-47.38" x2="2260.35" y2="-50.48" gradientTransform="matrix(0, -1, -1, 0, 1509.57, 2798.35)" xlink:href="#Dégradé_sans_nom_11"/><linearGradient id="Dégradé_sans_nom_11-24" x1="-846.66" y1="448.92" x2="-846.66" y2="445.85" gradientTransform="matrix(0, 1, 1, 0, 1080.1, 1445.66)" xlink:href="#Dégradé_sans_nom_11"/><linearGradient id="Dégradé_sans_nom_11-25" x1="1707.41" y1="517.51" x2="1707.41" y2="514.55" gradientTransform="matrix(0, -1, -1, 0, 2074.52, 2306.41)" xlink:href="#Dégradé_sans_nom_11"/><linearGradient id="Dégradé_sans_nom_55-10" x1="1004.15" y1="1839.43" x2="953.02" y2="1809.91" xlink:href="#Dégradé_sans_nom_55"/><linearGradient id="Dégradé_sans_nom_11-26" x1="-907.66" y1="627.86" x2="-907.66" y2="624.88" gradientTransform="matrix(0, 1, 1, 0, 1080.1, 1445.66)" xlink:href="#Dégradé_sans_nom_11"/><linearGradient id="Dégradé_sans_nom_11-27" x1="2260.35" y1="-225.46" x2="2260.35" y2="-228.44" gradientTransform="matrix(0, -1, -1, 0, 1509.57, 2798.35)" xlink:href="#Dégradé_sans_nom_11"/><linearGradient id="Dégradé_sans_nom_11-28" x1="-846.66" y1="626.9" x2="-846.66" y2="623.93" gradientTransform="matrix(0, 1, 1, 0, 1080.1, 1445.66)" xlink:href="#Dégradé_sans_nom_11"/><linearGradient id="Dégradé_sans_nom_11-29" x1="1707.41" y1="338.53" x2="1707.41" y2="335.57" gradientTransform="matrix(0, -1, -1, 0, 2074.52, 2306.41)" xlink:href="#Dégradé_sans_nom_11"/><linearGradient id="Dégradé_sans_nom_55-11" x1="1182.08" y1="1839.39" x2="1130.95" y2="1809.87" xlink:href="#Dégradé_sans_nom_55"/><linearGradient id="Dégradé_sans_nom_11-30" x1="2260.35" y1="309.53" x2="2260.35" y2="306.55" gradientTransform="matrix(0, -1, -1, 0, 1509.57, 2798.35)" xlink:href="#Dégradé_sans_nom_11"/><linearGradient id="Dégradé_sans_nom_11-31" x1="-907.66" y1="92.88" x2="-907.66" y2="89.9" gradientTransform="matrix(0, 1, 1, 0, 1080.1, 1445.66)" xlink:href="#Dégradé_sans_nom_11"/><linearGradient id="Dégradé_sans_nom_11-32" x1="-846.66" y1="91.91" x2="-846.66" y2="88.95" gradientTransform="matrix(0, 1, 1, 0, 1080.1, 1445.66)" xlink:href="#Dégradé_sans_nom_11"/><linearGradient id="Dégradé_sans_nom_11-33" x1="1707.41" y1="873.52" x2="1707.41" y2="870.55" gradientTransform="matrix(0, -1, -1, 0, 2074.52, 2306.41)" xlink:href="#Dégradé_sans_nom_11"/><linearGradient id="Dégradé_sans_nom_55-12" x1="648.08" y1="1839.39" x2="596.95" y2="1809.87" xlink:href="#Dégradé_sans_nom_55"/><linearGradient id="Dégradé_sans_nom_11-34" x1="2260.35" y1="487.6" x2="2260.35" y2="484.61" gradientTransform="matrix(0, -1, -1, 0, 1509.57, 2798.35)" xlink:href="#Dégradé_sans_nom_11"/><linearGradient id="Dégradé_sans_nom_11-35" x1="-907.66" y1="-85.15" x2="-907.66" y2="-88.07" gradientTransform="matrix(0, 1, 1, 0, 1080.1, 1445.66)" xlink:href="#Dégradé_sans_nom_11"/><linearGradient id="Dégradé_sans_nom_11-36" x1="-846.66" y1="-86.15" x2="-846.66" y2="-89.12" gradientTransform="matrix(0, 1, 1, 0, 1080.1, 1445.66)" xlink:href="#Dégradé_sans_nom_11"/><linearGradient id="Dégradé_sans_nom_11-37" x1="1707.41" y1="1052.48" x2="1707.41" y2="1049.51" gradientTransform="matrix(0, -1, -1, 0, 2074.52, 2306.41)" xlink:href="#Dégradé_sans_nom_11"/><linearGradient id="Dégradé_sans_nom_55-13" x1="469.16" y1="1839.43" x2="418.03" y2="1809.91" xlink:href="#Dégradé_sans_nom_55"/><linearGradient id="Dégradé_sans_nom_11-38" x1="-846.66" y1="-264.09" x2="-846.66" y2="-267.05" gradientTransform="matrix(0, 1, 1, 0, 1080.1, 1445.66)" xlink:href="#Dégradé_sans_nom_11"/><linearGradient id="Dégradé_sans_nom_11-39" x1="-846.66" y1="270.92" x2="-846.66" y2="267.85" gradientTransform="matrix(0, 1, 1, 0, 1080.1, 1445.66)" xlink:href="#Dégradé_sans_nom_11"/><linearGradient id="Dégradé_sans_nom_11-40" x1="1707.41" y1="695.51" x2="1707.41" y2="692.55" gradientTransform="matrix(0, -1, -1, 0, 2074.52, 2306.41)" xlink:href="#Dégradé_sans_nom_11"/><linearGradient id="Dégradé_sans_nom_11-41" x1="2199.35" y1="665.59" x2="2199.35" y2="662.52" gradientTransform="matrix(0, -1, -1, 0, 1509.57, 2798.35)" xlink:href="#Dégradé_sans_nom_11"/><linearGradient id="Dégradé_sans_nom_11-42" x1="2260.35" y1="666.53" x2="2260.35" y2="663.56" gradientTransform="matrix(0, -1, -1, 0, 1509.57, 2798.35)" xlink:href="#Dégradé_sans_nom_11"/><linearGradient id="Dégradé_sans_nom_11-43" x1="-907.66" y1="-263.13" x2="-907.66" y2="-266.09" gradientTransform="matrix(0, 1, 1, 0, 1080.1, 1445.66)" xlink:href="#Dégradé_sans_nom_11"/><linearGradient id="Dégradé_sans_nom_55-14" x1="291.08" y1="1839.39" x2="239.95" y2="1809.87" xlink:href="#Dégradé_sans_nom_55"/><linearGradient id="Dégradé_sans_nom_11-44" x1="2260.35" y1="844.52" x2="2260.35" y2="841.54" gradientTransform="matrix(0, -1, -1, 0, 1509.57, 2798.35)" xlink:href="#Dégradé_sans_nom_11"/><linearGradient id="Dégradé_sans_nom_11-45" x1="-907.66" y1="-442.12" x2="-907.66" y2="-445.1" gradientTransform="matrix(0, 1, 1, 0, 1080.1, 1445.66)" xlink:href="#Dégradé_sans_nom_11"/><linearGradient id="Dégradé_sans_nom_55-15" x1="113.08" y1="1839.39" x2="61.95" y2="1809.87" xlink:href="#Dégradé_sans_nom_55"/><linearGradient id="Dégradé_sans_nom_11-46" x1="-846.66" y1="-442.08" x2="-846.66" y2="-445.15" gradientTransform="matrix(0, 1, 1, 0, 1080.1, 1445.66)" xlink:href="#Dégradé_sans_nom_11"/><linearGradient id="Dégradé_sans_nom_11-47" x1="1707.41" y1="1408.51" x2="1707.41" y2="1405.55" gradientTransform="matrix(0, -1, -1, 0, 2074.52, 2306.41)" xlink:href="#Dégradé_sans_nom_11"/><linearGradient id="Dégradé_sans_nom_55-16" x1="764.48" y1="2097.28" x2="664.49" y2="2039.55" xlink:href="#Dégradé_sans_nom_55"/><linearGradient id="Dégradé_sans_nom_90-13" x1="929" y1="2394" x2="929" y2="2223" xlink:href="#Dégradé_sans_nom_90"/><linearGradient id="Dégradé_sans_nom_91" x1="929" y1="2227.04" x2="929" y2="2198.97" gradientTransform="matrix(1, 0, 0, -1, 564, 2394)" gradientUnits="userSpaceOnUse"><stop offset="0" stop-color="#4d4d4d"/><stop offset="0.47" stop-color="#6e6e6e"/><stop offset="1" stop-color="#999"/></linearGradient><linearGradient id="Dégradé_sans_nom_55-17" x1="762.33" y1="2176.43" x2="668.73" y2="2122.39" xlink:href="#Dégradé_sans_nom_55"/><linearGradient id="Dégradé_sans_nom_11-48" x1="-456.87" y1="2173.88" x2="-456.87" y2="2168.89" gradientTransform="matrix(1, 0, 0, -1, 1735.87, 2399.9)" xlink:href="#Dégradé_sans_nom_11"/><linearGradient id="Dégradé_sans_nom_55-18" x1="853.81" y1="2363.15" x2="577.49" y2="2203.62" xlink:href="#Dégradé_sans_nom_55"/><linearGradient id="Dégradé_sans_nom_11-49" x1="1427.55" y1="1230.1" x2="1427.55" y2="1225.11" gradientTransform="matrix(0, -1, -1, 0, 2583.11, 1540.55)" xlink:href="#Dégradé_sans_nom_11"/><linearGradient id="Dégradé_sans_nom_55-19" x1="1876.27" y1="2093.08" x2="1843.78" y2="2074.33" gradientTransform="translate(3157.05 2394) rotate(180)" xlink:href="#Dégradé_sans_nom_55"/><linearGradient id="Dégradé_sans_nom_55-20" x1="713.28" y1="2093.07" x2="680.79" y2="2074.32" xlink:href="#Dégradé_sans_nom_55"/><linearGradient id="Dégradé_sans_nom_11-50" x1="-479.12" y1="2109.89" x2="-479.12" y2="2104.88" gradientTransform="matrix(1, 0, 0, -1, 1735.87, 2399.9)" xlink:href="#Dégradé_sans_nom_11"/><linearGradient id="Dégradé_sans_nom_55-21" x1="745.83" y1="2130.42" x2="685.25" y2="2095.44" xlink:href="#Dégradé_sans_nom_55"/><linearGradient id="Dégradé_sans_nom_11-51" x1="-456.87" y1="2123.89" x2="-456.87" y2="2118.9" gradientTransform="matrix(1, 0, 0, -1, 1735.87, 2399.9)" xlink:href="#Dégradé_sans_nom_11"/><linearGradient id="Dégradé_sans_nom_11-52" x1="740.27" y1="2109.89" x2="740.27" y2="2104.88" gradientTransform="translate(2041.57 2399.9) rotate(180)" xlink:href="#Dégradé_sans_nom_11"/><linearGradient id="Dégradé_sans_nom_55-22" x1="723.16" y1="2107.68" x2="707.81" y2="2098.82" xlink:href="#Dégradé_sans_nom_55"/><linearGradient id="Dégradé_sans_nom_11-53" x1="715.5" y1="2104.99" x2="715.5" y2="2100.92" xlink:href="#Dégradé_sans_nom_11"/><linearGradient id="Dégradé_sans_nom_11-54" x1="-1220.4" y1="-24.32" x2="-1220.4" y2="-29.31" gradientTransform="matrix(0, 1, 1, 0, 1182.34, 1317.9)" xlink:href="#Dégradé_sans_nom_11"/><linearGradient id="Dégradé_sans_nom_11-55" x1="1444.55" y1="1183.06" x2="1444.55" y2="1178.07" gradientTransform="matrix(0, -1, -1, 0, 2583.11, 1540.55)" xlink:href="#Dégradé_sans_nom_11"/><linearGradient id="Dégradé_sans_nom_106" x1="819.44" y1="2341.28" x2="610.61" y2="2220.71" gradientTransform="matrix(1, 0, 0, -1, 564, 2394)" gradientUnits="userSpaceOnUse"><stop offset="0" stop-color="#999"/><stop offset="0.54" stop-color="#6e6e6e"/><stop offset="1" stop-color="#4d4d4d"/></linearGradient><linearGradient id="Dégradé_sans_nom_11-56" x1="-1204.9" y1="22.62" x2="-1204.9" y2="17.63" gradientTransform="matrix(0, 1, 1, 0, 1182.34, 1317.9)" xlink:href="#Dégradé_sans_nom_11"/><linearGradient id="Dégradé_sans_nom_108-8" x1="678.37" y1="1905.28" x2="749.06" y2="1905.28" xlink:href="#Dégradé_sans_nom_108"/></defs><title>Bg4</title><g id="Bg4"><g id="deuxieme_plan_bouteille" data-name="deuxieme plan bouteille"><g class="cls-1"><path class="cls-2" d="M1520.8,672h-92.6a9.2,9.2,0,0,1-9.2-9.2V650h111v12.8A9.2,9.2,0,0,1,1520.8,672Z"/><path class="cls-3" d="M1494.8,684h-41.6a9.2,9.2,0,0,1-9.2-9.2V672h60v2.8A9.2,9.2,0,0,1,1494.8,684Z"/><rect class="cls-4" x="1457" y="684" width="34" height="220"/><rect class="cls-5" x="1419" y="650" width="111" height="5"/><path class="cls-6" d="M1880.8,672h-92.6a9.2,9.2,0,0,1-9.2-9.2V650h111v12.8A9.2,9.2,0,0,1,1880.8,672Z"/><path class="cls-7" d="M1855.8,684h-41.6a9.2,9.2,0,0,1-9.2-9.2V672h60v2.8A9.2,9.2,0,0,1,1855.8,684Z"/><rect class="cls-8" x="1818" y="684" width="34" height="220"/><rect class="cls-9" x="1779" y="650" width="111" height="5"/><path class="cls-10" d="M1159.8,672h-92.6a9.2,9.2,0,0,1-9.2-9.2V650h111v12.8A9.2,9.2,0,0,1,1159.8,672Z"/><path class="cls-11" d="M1134.8,684h-41.6a9.2,9.2,0,0,1-9.2-9.2V672h60v2.8A9.2,9.2,0,0,1,1134.8,684Z"/><rect class="cls-12" x="1097" y="684" width="34" height="220"/><rect class="cls-13" x="1058" y="650" width="111" height="5"/><path class="cls-14" d="M799.78,672H707.2a9.2,9.2,0,0,1-9.2-9.2V650H809v12.76A9.14,9.14,0,0,1,799.78,672Z"/><path class="cls-15" d="M773.82,684H732.2a9.2,9.2,0,0,1-9.2-9.2V672h60v2.72A9.14,9.14,0,0,1,773.82,684Z"/><rect class="cls-16" x="736" y="684" width="34" height="220"/><rect class="cls-17" x="698" y="650" width="111" height="5"/><g id="barriere_arriere" data-name="barriere arriere"><path class="cls-18" d="M1572.1,575H1544V507.4a7.4,7.4,0,0,1,7.4-7.4h13.2a7.4,7.4,0,0,1,7.4,7.4V575Z"/><rect class="cls-19" x="1543" y="511" width="29" height="3"/><path class="cls-20" d="M1751.1,575H1723V507.4a7.4,7.4,0,0,1,7.4-7.4h13.2a7.4,7.4,0,0,1,7.4,7.4V575Z"/><rect class="cls-21" x="1723" y="511" width="29" height="3"/><path class="cls-22" d="M1392.1,575H1364V507.4a7.4,7.4,0,0,1,7.4-7.4h13.2a7.4,7.4,0,0,1,7.4,7.4V575Z"/><rect class="cls-23" x="1363" y="511" width="29" height="3"/><path class="cls-24" d="M1212.1,575H1184V507.4a7.4,7.4,0,0,1,7.4-7.4h13.2a7.4,7.4,0,0,1,7.4,7.4V575Z"/><rect class="cls-25" x="1183" y="511" width="29" height="3"/><path class="cls-26" d="M1032.1,575H1004V507.4a7.4,7.4,0,0,1,7.4-7.4h13.2a7.4,7.4,0,0,1,7.4,7.4V575Z"/><rect class="cls-27" x="1003" y="511" width="29" height="3"/><path class="cls-28" d="M852.1,575H824V507.4a7.4,7.4,0,0,1,7.4-7.4h13.2a7.4,7.4,0,0,1,7.4,7.4V575Z"/><rect class="cls-29" x="824" y="511" width="29" height="3"/><path class="cls-30" d="M674.1,575H646V507.4a7.4,7.4,0,0,1,7.4-7.4h13.2a7.4,7.4,0,0,1,7.4,7.4V575Z"/><rect class="cls-31" x="645" y="511" width="29" height="3"/><rect class="cls-32" x="545" y="504" width="1375" height="8"/><rect class="cls-33" x="545" y="565" width="1375" height="8"/></g><polygon id="tapis_roulant" data-name="tapis roulant" class="cls-34" points="545 569 1774.39 569 1920 569 1920 650 545 650 545 569"/><path id="ombre_barriere" data-name="ombre barriere" class="cls-35" d="M1722.86,583l95.62.3L1806,591H1710.8l-1.7.9c-2.4,1.5-7.3,2.1-7.3,2.1h-24.5s-1.2-.8,1.2-2.3l1.7-.7-136.38-.47-1.6,1a15.9,15.9,0,0,1-6.84,2.44l-24.8-.1c-1.74,0-1.23-1.23,1.24-2.77l1.74-1.13-134.84-.47-1.6,1a15.9,15.9,0,0,1-6.84,2.44l-24.8-.1c-1.74,0-1.23-1.23,1.24-2.77l1.74-1.13-142.54-.47-1.6,1a15.9,15.9,0,0,1-6.84,2.44l-24.8-.1c-1.74,0-1.23-1.23,1.24-2.77l1.74-1.13-130.86-.4,12.3-7.6,131,.39,3-1.77L1209.73,567l-130.48-.38,5.9-3.62H1216.1l30.6,1h142.2l30.6,1,134.5-1,30.6,1,136.1,1,30.6-1,95.22.29-6,3.71-95.14-.31-19.42,12.06ZM1241,567.5l-18.86,11.71-3,1.79,141.11.5,3-1.79L1382.07,568Zm172.77,1-18.86,11.71-3,1.79,133.47.5,3-1.79L1547.2,569ZM1713.9,570l-135.06-.5L1560,581.21l-3,1.79,135.06.5,3-1.79Z"/><path id="ombre_bouteille" data-name="ombre bouteille" class="cls-36" d="M1310.6,579.7s-10.5,10.1-91.5,15c-16,1-28.3-.9-38.2-6-19.6-10.1,64.9-13.6,64.9-13.6l64,1.6C1311.5,576.9,1312.1,578.9,1310.6,579.7Z"/><g id="bouteille" class="cls-1"><path class="cls-37" d="M1292.31,332.5c-1,1.5,3.62,34.5,7.54,45.6,7.13,20.5,10,34.4,10.34,40.7.3,5.7,1.61,35.3,1.81,40.3v1.4c-.3,5.8-2.71,45.4-3.21,48.1-.61,2.9-4,24.9-.61,36.3,4.12,13.4,6.33,30.4,3.82,33.1-1.1,1.3-5.22,9.6-35.16,8.3s-32.84-9.2-34.25-12.4,0-14.5,3.72-29,2.61-25.7,1.7-35.4c-.8-8.8-2.71-41.9-3-47.8v-1.8c.4-5.4,2.41-33.1,2.41-39,0-6.6,6.33-27.4,11.75-43.3,3.12-9.1,7.44-44.5,5.73-45.1a5,5,0,0,1-1.31-4.6c.71-2.9,2.82-8.9,2.82-8.9h25.71s2.41,6.1,2.51,9.3A4.43,4.43,0,0,1,1292.31,332.5Z"/></g><path id="ombre_bouteille-2" data-name="ombre bouteille" class="cls-38" d="M1127.4,579.7s-10.5,10.1-91.5,15c-16,1-28.3-.9-38.2-6-19.6-10.1,64.9-13.6,64.9-13.6l64,1.6A1.61,1.61,0,0,1,1127.4,579.7Z"/><g id="bouteille-2" data-name="bouteille" class="cls-1"><path class="cls-39" d="M1108.31,332.5c-1,1.5,3.62,34.5,7.54,45.6,7.13,20.5,10,34.4,10.34,40.7.3,5.7,1.61,35.3,1.81,40.3v1.4c-.3,5.8-2.71,45.4-3.21,48.1-.61,2.9-4,24.9-.61,36.3,4.12,13.4,6.33,30.4,3.82,33.1-1.1,1.3-5.22,9.6-35.16,8.3s-32.84-9.2-34.25-12.4,0-14.5,3.72-29,2.61-25.7,1.7-35.4c-.8-8.8-2.71-41.9-3-47.8v-1.8c.4-5.4,2.41-33.1,2.41-39,0-6.6,6.33-27.4,11.75-43.3,3.12-9.1,7.44-44.5,5.73-45.1a5,5,0,0,1-1.31-4.6c.71-2.9,2.82-8.9,2.82-8.9h25.71s2.41,6.1,2.51,9.3A4.43,4.43,0,0,1,1108.31,332.5Z"/></g><path id="ombre_bouteille-3" data-name="ombre bouteille" class="cls-40" d="M944.1,579.7s-10.5,10.1-91.5,15c-16,1-28.3-.9-38.2-6-19.6-10.1,64.9-13.6,64.9-13.6l64,1.6C945,576.9,945.6,578.9,944.1,579.7Z"/><g id="bouteille-3" data-name="bouteille" class="cls-1"><path class="cls-41" d="M925.31,332.5c-1,1.5,3.62,34.5,7.54,45.6,7.13,20.5,10,34.4,10.34,40.7.3,5.7,1.61,35.3,1.81,40.3v1.4c-.3,5.8-2.71,45.4-3.21,48.1-.61,2.9-4,24.9-.61,36.3,4.12,13.4,6.33,30.4,3.82,33.1-1.1,1.3-5.22,9.6-35.16,8.3s-32.84-9.2-34.25-12.4,0-14.5,3.72-29,2.61-25.7,1.7-35.4c-.8-8.8-2.71-41.9-3-47.8v-1.8c.4-5.4,2.41-33.1,2.41-39,0-6.6,6.33-27.4,11.75-43.3,3.12-9.1,7.44-44.5,5.73-45.1a5,5,0,0,1-1.31-4.6c.71-2.9,2.82-8.9,2.82-8.9h25.71s2.41,6.1,2.51,9.3A4.43,4.43,0,0,1,925.31,332.5Z"/></g><path id="ombre_bouteille-4" data-name="ombre bouteille" class="cls-42" d="M760.9,579.7s-10.5,10.1-91.5,15c-16,1-28.3-.9-38.2-6-19.6-10.1,64.9-13.6,64.9-13.6l64,1.6C761.8,576.9,762.4,578.9,760.9,579.7Z"/><g id="bouteille-4" data-name="bouteille" class="cls-1"><path class="cls-43" d="M742.31,332.5c-1,1.5,3.62,34.5,7.54,45.6,7.13,20.5,10,34.4,10.34,40.7.3,5.7,1.61,35.3,1.81,40.3v1.4c-.3,5.8-2.71,45.4-3.21,48.1-.61,2.9-4,24.9-.61,36.3,4.12,13.4,6.33,30.4,3.82,33.1-1.1,1.3-5.22,9.6-35.16,8.3s-32.84-9.2-34.25-12.4,0-14.5,3.72-29,2.61-25.7,1.7-35.4c-.8-8.8-2.71-41.9-3-47.8v-1.8c.4-5.4,2.41-33.1,2.41-39,0-6.6,6.33-27.4,11.75-43.3,3.12-9.1,7.44-44.5,5.73-45.1a5,5,0,0,1-1.31-4.6c.71-2.9,2.82-8.9,2.82-8.9h25.71s2.41,6.1,2.51,9.3A4.43,4.43,0,0,1,742.31,332.5Z"/></g><path id="ombre_bouteille-5" data-name="ombre bouteille" class="cls-44" d="M1860.3,579.7s-10.5,10.1-91.5,15c-16,1-28.3-.9-38.2-6-19.6-10.1,64.9-13.6,64.9-13.6l64,1.6C1861.2,576.9,1861.8,578.9,1860.3,579.7Z"/><g id="bouteille-5" data-name="bouteille" class="cls-1"><path class="cls-45" d="M1841.31,332.5c-1,1.5,3.62,34.5,7.54,45.6,7.13,20.5,10,34.4,10.34,40.7.3,5.7,1.61,35.3,1.81,40.3v1.4c-.3,5.8-2.71,45.4-3.21,48.1-.61,2.9-4,24.9-.61,36.3,4.12,13.4,6.33,30.4,3.82,33.1-1.1,1.3-5.22,9.6-35.16,8.3s-32.84-9.2-34.25-12.4,0-14.5,3.72-29,2.61-25.7,1.7-35.4c-.8-8.8-2.71-41.9-3-47.8v-1.8c.4-5.4,2.41-33.1,2.41-39,0-6.6,6.33-27.4,11.75-43.3,3.12-9.1,7.44-44.5,5.73-45.1a5,5,0,0,1-1.31-4.6c.71-2.9,2.82-8.9,2.82-8.9h25.71s2.41,6.1,2.51,9.3A4.43,4.43,0,0,1,1841.31,332.5Z"/></g><g id="bouteille-6" data-name="bouteille" class="cls-1"><path class="cls-46" d="M1808.4,377.5c-5.4,16-11.7,36.8-11.7,43.3,0,5.9-2,33.6-2.4,39a10.82,10.82,0,0,0,0,1.8c.3,6,2.3,39,3,47.8.9,9.7,2,20.9-1.7,35.4s-5.2,25.9-3.7,29,4.3,11.1,34.1,12.4,33.9-7,35-8.3c2.5-2.8.3-19.7-3.8-33.1-3.5-11.4,0-33.4.6-36.3.5-2.6,2.9-42.2,3.2-48.1V459c-.2-5-1.5-34.6-1.8-40.3-.3-6.3-3.2-20.1-10.3-40.7Z"/></g><path id="ombre_bouteille-6" data-name="ombre bouteille" class="cls-47" d="M1493.8,579.7s-10.5,10.1-91.5,15c-16,1-28.3-.9-38.2-6-19.6-10.1,64.9-13.6,64.9-13.6l64,1.6C1494.7,576.9,1495.3,578.9,1493.8,579.7Z"/><g id="bouteille-7" data-name="bouteille" class="cls-1"><path class="cls-48" d="M1475.31,332.5c-1,1.5,3.62,34.5,7.54,45.6,7.13,20.5,10,34.4,10.34,40.7.3,5.7,1.61,35.3,1.81,40.3v1.4c-.3,5.8-2.71,45.4-3.21,48.1-.61,2.9-4,24.9-.61,36.3,4.12,13.4,6.33,30.4,3.82,33.1-1.1,1.3-5.22,9.6-35.16,8.3s-32.84-9.2-34.25-12.4,0-14.5,3.72-29,2.61-25.7,1.7-35.4c-.8-8.8-2.71-41.9-3-47.8v-1.8c.4-5.4,2.41-33.1,2.41-39,0-6.6,6.33-27.4,11.75-43.3,3.12-9.1,7.44-44.5,5.73-45.1a5,5,0,0,1-1.31-4.6c.71-2.9,2.82-8.9,2.82-8.9h25.71s2.41,6.1,2.51,9.3A4.43,4.43,0,0,1,1475.31,332.5Z"/></g><g id="bouteille-8" data-name="bouteille" class="cls-1"><path class="cls-49" d="M1442.4,377.5c-5.4,16-11.7,36.8-11.7,43.3,0,5.9-2,33.6-2.4,39a10.82,10.82,0,0,0,0,1.8c.3,6,2.3,39,3,47.8.9,9.7,2,20.9-1.7,35.4s-5.2,25.9-3.7,29,4.3,11.1,34.1,12.4,33.9-7,35-8.3c2.5-2.8.3-19.7-3.8-33.1-3.5-11.4,0-33.4.6-36.3.5-2.6,2.9-42.2,3.2-48.1V459c-.2-5-1.5-34.6-1.8-40.3-.3-6.3-3.2-20.1-10.3-40.7Z"/></g><path id="ombre_bouteille-7" data-name="ombre bouteille" class="cls-50" d="M1677.1,579.7s-10.5,10.1-91.5,15c-16,1-28.3-.9-38.2-6-19.6-10.1,64.9-13.6,64.9-13.6l64,1.6A1.61,1.61,0,0,1,1677.1,579.7Z"/><g id="bouteille-9" data-name="bouteille" class="cls-1"><path class="cls-51" d="M1658.31,332.5c-1,1.5,3.62,34.5,7.54,45.6,7.13,20.5,10,34.4,10.34,40.7.3,5.7,1.61,35.3,1.81,40.3v1.4c-.3,5.8-2.71,45.4-3.21,48.1-.61,2.9-4,24.9-.61,36.3,4.12,13.4,6.33,30.4,3.82,33.1-1.1,1.3-5.22,9.6-35.16,8.3s-32.84-9.2-34.25-12.4,0-14.5,3.72-29,2.61-25.7,1.7-35.4c-.8-8.8-2.71-41.9-3-47.8v-1.8c.4-5.4,2.41-33.1,2.41-39,0-6.6,6.33-27.4,11.75-43.3,3.12-9.1,7.44-44.5,5.73-45.1a5,5,0,0,1-1.31-4.6c.71-2.9,2.82-8.9,2.82-8.9h25.71s2.41,6.1,2.51,9.3A4.43,4.43,0,0,1,1658.31,332.5Z"/></g><g id="bouteille-10" data-name="bouteille" class="cls-1"><path class="cls-52" d="M1625.4,377.5c-5.4,16-11.7,36.8-11.7,43.3,0,5.9-2,33.6-2.4,39a10.82,10.82,0,0,0,0,1.8c.3,6,2.3,39,3,47.8.9,9.7,2,20.9-1.7,35.4s-5.2,25.9-3.7,29,4.3,11.1,34.1,12.4,33.9-7,35-8.3c2.5-2.8.3-19.7-3.8-33.1-3.5-11.4,0-33.4.6-36.3.5-2.6,2.9-42.2,3.2-48.1V459c-.2-5-1.5-34.6-1.8-40.3-.3-6.3-3.2-20.1-10.3-40.7Z"/></g><g id="barriere_avant" data-name="barriere avant"><rect class="cls-53" x="545" y="534" width="1375" height="8"/><rect class="cls-54" x="545" y="595" width="1375" height="8"/><polygon class="cls-55" points="1348 542 1348 534 1351 534 1351 542 1348 542"/><polygon class="cls-56" points="1381 534 1381 542 1378 542 1378 534 1381 534"/><path class="cls-57" d="M1379.1,605H1351V537.4a7.4,7.4,0,0,1,7.4-7.4h13.2a7.4,7.4,0,0,1,7.4,7.4V605Z"/><polygon class="cls-58" points="1527 542 1527 534 1530 534 1530 542 1527 542"/><polygon class="cls-59" points="1560 534 1560 542 1557 542 1557 534 1560 534"/><polygon class="cls-60" points="1526 603 1526 595 1529 595 1529 603 1526 603"/><polygon class="cls-61" points="1560 595 1560 603 1557 603 1557 595 1560 595"/><path class="cls-62" d="M1557.1,605H1529V537.4a7.4,7.4,0,0,1,7.4-7.4h13.2a7.4,7.4,0,0,1,7.4,7.4V605Z"/><polygon class="cls-63" points="1705 542 1705 534 1708 534 1708 542 1705 542"/><polygon class="cls-64" points="1738 534 1738 542 1735 542 1735 534 1738 534"/><polygon class="cls-65" points="1704 603 1704 595 1707 595 1707 603 1704 603"/><polygon class="cls-66" points="1739 595 1739 603 1736 603 1736 595 1739 595"/><path class="cls-67" d="M1735.1,605H1707V537.4a7.4,7.4,0,0,1,7.4-7.4h13.2a7.4,7.4,0,0,1,7.4,7.4V605Z"/><polygon class="cls-68" points="1203 534 1203 542 1200 542 1200 534 1203 534"/><polygon class="cls-69" points="1170 542 1170 534 1173 534 1173 542 1170 542"/><polygon class="cls-70" points="1169 603 1169 595 1172 595 1172 603 1169 603"/><polygon class="cls-71" points="1204 595 1204 603 1201 603 1201 595 1204 595"/><path class="cls-72" d="M1201.1,605H1173V537.4a7.4,7.4,0,0,1,7.4-7.4h13.2a7.4,7.4,0,0,1,7.4,7.4V605Z"/><polygon class="cls-73" points="1025 534 1025 542 1022 542 1022 534 1025 534"/><polygon class="cls-74" points="992 542 992 534 995 534 995 542 992 542"/><polygon class="cls-75" points="991 603 991 595 994 595 994 603 991 603"/><polygon class="cls-76" points="1025 595 1025 603 1022 603 1022 595 1025 595"/><path class="cls-77" d="M1022.1,605H994V537.4a7.4,7.4,0,0,1,7.4-7.4h13.2a7.4,7.4,0,0,1,7.4,7.4V605Z"/><polygon class="cls-78" points="813 603 813 595 816 595 816 603 813 603"/><polygon class="cls-79" points="1348 603 1348 595 1351 595 1351 603 1348 603"/><polygon class="cls-80" points="1382 595 1382 603 1379 603 1379 595 1382 595"/><polygon class="cls-81" points="847 595 847 603 844 603 844 595 847 595"/><polygon class="cls-82" points="846 534 846 542 843 542 843 534 846 534"/><polygon class="cls-83" points="814 542 814 534 817 534 817 542 814 542"/><path class="cls-84" d="M844.1,605H816V537.4a7.4,7.4,0,0,1,7.4-7.4h13.2a7.4,7.4,0,0,1,7.4,7.4V605Z"/><polygon class="cls-85" points="668 534 668 542 665 542 665 534 668 534"/><polygon class="cls-86" points="635 542 635 534 638 534 638 542 635 542"/><path class="cls-87" d="M666.1,605H638V537.4a7.4,7.4,0,0,1,7.4-7.4h13.2a7.4,7.4,0,0,1,7.4,7.4V605Z"/><polygon class="cls-88" points="635 603 635 595 638 595 638 603 635 603"/><polygon class="cls-89" points="669 595 669 603 666 603 666 595 669 595"/></g></g><g class="cls-90"><path class="cls-91" d="M1272.7,207.4c3.1,19.6,5.5,39.3,7.6,59.1,1,9.9,2,19.8,2.7,29.7.4,5,.7,9.9.9,14.9s.4,10,.3,15.2c0,.7-.1,1.3-.1,2s-.1,1.5-.2,2.1l-.5,3.7c-.4,2.5-.7,4.9-1.2,7.3-.8,4.9-1.8,9.7-2.6,14.6a121.7,121.7,0,0,0-1.7,14.5,117.22,117.22,0,0,0,.2,14.5,104.62,104.62,0,0,0,2.2,14.4l3,14.6a147.15,147.15,0,0,1,2.4,14.8,62.82,62.82,0,0,1,.4,7.5,21.43,21.43,0,0,1-1.2,7.5.41.41,0,0,1-.8-.2h0a21.7,21.7,0,0,0,.4-7.2,60.94,60.94,0,0,0-1-7.3c-.9-4.8-2.2-9.6-3.5-14.3s-2.8-9.5-4-14.3a138.61,138.61,0,0,1-3.3-14.8,109.83,109.83,0,0,1-1-15.2,149.34,149.34,0,0,1,.9-15.1c.5-5,.9-9.9,1.5-14.9.3-2.5.6-4.9.9-7.4l.5-3.7c.1-.6.1-1.1.2-1.6a9.15,9.15,0,0,0,.1-1.7c.2-4.7.1-9.6,0-14.5s-.3-9.8-.5-14.8c-.4-9.9-.8-19.8-1.3-29.7-.9-19.8-1.8-39.6-2.3-59.4a.43.43,0,0,1,.4-.4C1272.5,207,1272.7,207.2,1272.7,207.4Z"/><rect class="cls-92" x="1066" width="854" height="171"/><path class="cls-93" d="M1920,195H1077.2a11.19,11.19,0,0,1-11.2-11.2V167h854Z"/><path class="cls-94" d="M1326,268.4a7.6,7.6,0,0,1-7.6,7.6h-78.69a7.72,7.72,0,0,1-7.71-7.73V217h94Z"/><rect class="cls-95" x="1232" y="226" width="94" height="5"/><path class="cls-96" d="M1390.5,226H1167.6a9.6,9.6,0,0,1-9.6-9.6V0h242V216.49A9.5,9.5,0,0,1,1390.5,226Z"/><polygon class="cls-97" points="1358 0 1358 226 1353 226 1353 0 1358 0"/><path class="cls-98" d="M1308.6,284.7l7.5,29.2a1.26,1.26,0,0,1-.2,1.3L1295,340.5a1.22,1.22,0,0,1-2.1-1.2l9.2-24a1.42,1.42,0,0,0-.1-1.1l-11.6-28.3a1.26,1.26,0,0,1,1.1-1.9h16.1C1307.9,283.9,1308.4,284.2,1308.6,284.7Z"/><path class="cls-99" d="M1249.5,284.7l-7.5,29.2a1.26,1.26,0,0,0,.2,1.3l20.9,25.3a1.22,1.22,0,0,0,2.1-1.2l-9.2-24a1.42,1.42,0,0,1,.1-1.1l11.6-28.3a1.26,1.26,0,0,0-1.1-1.9h-16.1C1250.1,283.9,1249.7,284.2,1249.5,284.7Z"/><polygon class="cls-100" points="1264.01 295 1247.47 295 1248.72 290 1266.03 290 1264.01 295"/><path class="cls-101" d="M1309.42,290h-60.74a7.81,7.81,0,0,1-7.68-7.93V276h76v6.07A7.73,7.73,0,0,1,1309.42,290Z"/><rect class="cls-102" x="1241" y="276" width="76" height="5"/><polygon class="cls-103" points="1294.09 295 1310.63 295 1309.38 290 1291.97 290 1294.09 295"/><path class="cls-104" d="M1281.68,296h-5.36a6.94,6.94,0,0,1-7-7h19.36A6.94,6.94,0,0,1,1281.68,296Z"/><path class="cls-105" d="M1271.21,293.1a6.67,6.67,0,0,1-1.21-4V289h19v.1a7.28,7.28,0,0,1-1.11,3.9Z"/><polygon class="cls-106" points="1153 195 1153 0 1158 0 1158 195 1153 195"/><polygon class="cls-107" points="1405 0 1405 192 1400 192 1400 0 1405 0"/><path class="cls-108" d="M1353,226H1205.1a.1.1,0,0,1-.1-.1V0h148V226Z"/><polygon class="cls-109" points="1200 226 1200 0 1205 0 1205 226 1200 226"/></g><g id="bouteille-11" data-name="bouteille" class="cls-1"><path class="cls-110" d="M1312,439.1v1.4c-.3,5.8-2.7,45.4-3.2,48.1-.6,2.9-4,24.9-.6,36.3,4.1,13.4,6.3,30.4,3.8,33.1-1.1,1.3-5.2,9.6-35,8.3s-32.7-9.2-34.1-12.4,0-14.5,3.7-29,2.6-25.7,1.7-35.4c-.8-8.8-2.7-41.9-3-47.8,0-.6,1-12.8,1.1-13.4,0,0,7.7-6.7,20.9-7.1s17-10.4,27.2-10.2,16.7,3.4,16.8,4.8C1311.3,417,1312,439.1,1312,439.1Z"/></g></g></g></svg>