<svg id="Calque_1" data-name="Calque 1" xmlns="http://www.w3.org/2000/svg" xmlns:xlink="http://www.w3.org/1999/xlink" viewBox="0 0 1920 1080"><defs><style>.cls-1{fill:url(#Dégradé_sans_nom_55);}.cls-2{fill:url(#Dégradé_sans_nom_55-2);}.cls-3{fill:url(#Dégradé_sans_nom_55-3);}.cls-4{fill:url(#Dégradé_sans_nom_55-4);}.cls-5{fill:url(#Dégradé_sans_nom_55-5);}.cls-6{fill:url(#Dégradé_sans_nom_55-6);}.cls-7{fill:url(#Dégradé_sans_nom_55-7);}.cls-8{fill:url(#Dégradé_sans_nom_55-8);}.cls-9{fill:url(#Dégradé_sans_nom_55-9);}.cls-10{fill:url(#Dégradé_sans_nom_55-10);}.cls-11{fill:url(#Dégradé_sans_nom_55-11);}.cls-12{fill:url(#Dégradé_sans_nom_55-12);}.cls-13{fill:url(#Dégradé_sans_nom_55-13);}.cls-14{fill:url(#Dégradé_sans_nom_55-14);}.cls-15{fill:url(#Dégradé_sans_nom_55-15);}.cls-16{fill:url(#Dégradé_sans_nom_55-16);}.cls-17{fill:url(#Dégradé_sans_nom_55-17);}.cls-18{fill:url(#Dégradé_sans_nom_55-18);}.cls-19{fill:url(#Dégradé_sans_nom_55-19);}.cls-20{fill:url(#Dégradé_sans_nom_55-20);}.cls-21{fill:url(#Dégradé_sans_nom_55-21);}.cls-22{fill:url(#Dégradé_sans_nom_55-22);}.cls-23{fill:url(#Dégradé_sans_nom_55-23);}.cls-24{fill:url(#Dégradé_sans_nom_55-24);}.cls-25{fill:url(#Dégradé_sans_nom_55-25);}.cls-26{fill:url(#Dégradé_sans_nom_55-26);}.cls-27{fill:url(#Dégradé_sans_nom_55-27);}.cls-28{fill:url(#Dégradé_sans_nom_55-28);}.cls-29{fill:url(#Dégradé_sans_nom_55-29);}.cls-30{fill:url(#Dégradé_sans_nom_55-30);}.cls-31{fill:url(#Dégradé_sans_nom_55-31);}.cls-32{fill:url(#Dégradé_sans_nom_55-32);}.cls-33{fill:url(#Dégradé_sans_nom_55-33);}.cls-34{fill:url(#Dégradé_sans_nom_55-34);}.cls-35{fill:url(#Dégradé_sans_nom_55-35);}.cls-36{fill:url(#Dégradé_sans_nom_55-36);}.cls-37{fill:url(#Dégradé_sans_nom_55-37);}.cls-38{fill:url(#Dégradé_sans_nom_55-38);}.cls-39{fill:url(#Dégradé_sans_nom_55-39);}.cls-40{fill:url(#Dégradé_sans_nom_55-40);}.cls-41{fill:url(#Dégradé_sans_nom_55-41);}.cls-42{fill:url(#Dégradé_sans_nom_55-42);}.cls-43{fill:url(#Dégradé_sans_nom_55-43);}.cls-44{fill:url(#Dégradé_sans_nom_55-44);}.cls-45{fill:url(#Dégradé_sans_nom_55-45);}.cls-46,.cls-47,.cls-48,.cls-49{opacity:0.5;}.cls-46,.cls-47,.cls-48,.cls-49,.cls-52{isolation:isolate;}.cls-46{fill:url(#Dégradé_sans_nom_11);}.cls-47{fill:url(#Dégradé_sans_nom_11-2);}.cls-48{fill:url(#Dégradé_sans_nom_11-3);}.cls-49{fill:url(#Dégradé_sans_nom_11-4);}.cls-50{fill:url(#Dégradé_sans_nom_3);}.cls-51{fill:url(#Dégradé_sans_nom_3-2);}.cls-52{opacity:0.4;fill:url(#Dégradé_sans_nom_11-5);}</style><linearGradient id="Dégradé_sans_nom_55" x1="394" y1="1526" x2="394" y2="1314" gradientTransform="matrix(1, 0, 0, -1, 564, 2394)" gradientUnits="userSpaceOnUse"><stop offset="0" stop-color="#999"/><stop offset="0.01" stop-color="#969696"/><stop offset="0.15" stop-color="#7b7b7b"/><stop offset="0.3" stop-color="#676767"/><stop offset="0.47" stop-color="#585858"/><stop offset="0.68" stop-color="#505050"/><stop offset="1" stop-color="#4d4d4d"/></linearGradient><linearGradient id="Dégradé_sans_nom_55-2" x1="276.53" y1="1646.97" x2="138.5" y2="1567.28" xlink:href="#Dégradé_sans_nom_55"/><linearGradient id="Dégradé_sans_nom_55-3" x1="187.23" y1="1687.47" x2="179.33" y2="1682.91" xlink:href="#Dégradé_sans_nom_55"/><linearGradient id="Dégradé_sans_nom_55-4" x1="238.22" y1="1687.47" x2="230.32" y2="1682.9" xlink:href="#Dégradé_sans_nom_55"/><linearGradient id="Dégradé_sans_nom_55-5" x1="186.94" y1="1647.87" x2="179.04" y2="1643.31" xlink:href="#Dégradé_sans_nom_55"/><linearGradient id="Dégradé_sans_nom_55-6" x1="237.93" y1="1647.87" x2="230.03" y2="1643.31" xlink:href="#Dégradé_sans_nom_55"/><linearGradient id="Dégradé_sans_nom_55-7" x1="187.08" y1="1608.3" x2="179.18" y2="1603.74" xlink:href="#Dégradé_sans_nom_55"/><linearGradient id="Dégradé_sans_nom_55-8" x1="238.07" y1="1608.29" x2="230.17" y2="1603.73" xlink:href="#Dégradé_sans_nom_55"/><linearGradient id="Dégradé_sans_nom_55-9" x1="186.78" y1="1568.7" x2="178.88" y2="1564.14" xlink:href="#Dégradé_sans_nom_55"/><linearGradient id="Dégradé_sans_nom_55-10" x1="237.77" y1="1568.69" x2="229.87" y2="1564.13" xlink:href="#Dégradé_sans_nom_55"/><linearGradient id="Dégradé_sans_nom_55-11" x1="187.17" y1="1529.09" x2="179.26" y2="1524.53" xlink:href="#Dégradé_sans_nom_55"/><linearGradient id="Dégradé_sans_nom_55-12" x1="238.16" y1="1529.08" x2="230.25" y2="1524.52" xlink:href="#Dégradé_sans_nom_55"/><linearGradient id="Dégradé_sans_nom_55-13" x1="715.53" y1="1646.97" x2="577.5" y2="1567.28" xlink:href="#Dégradé_sans_nom_55"/><linearGradient id="Dégradé_sans_nom_55-14" x1="625.62" y1="1687.46" x2="617.72" y2="1682.9" xlink:href="#Dégradé_sans_nom_55"/><linearGradient id="Dégradé_sans_nom_55-15" x1="676.61" y1="1687.46" x2="668.71" y2="1682.9" xlink:href="#Dégradé_sans_nom_55"/><linearGradient id="Dégradé_sans_nom_55-16" x1="625.32" y1="1647.87" x2="617.42" y2="1643.3" xlink:href="#Dégradé_sans_nom_55"/><linearGradient id="Dégradé_sans_nom_55-17" x1="676.31" y1="1647.86" x2="668.41" y2="1643.3" xlink:href="#Dégradé_sans_nom_55"/><linearGradient id="Dégradé_sans_nom_55-18" x1="625.46" y1="1608.29" x2="617.56" y2="1603.73" xlink:href="#Dégradé_sans_nom_55"/><linearGradient id="Dégradé_sans_nom_55-19" x1="676.45" y1="1608.28" x2="668.55" y2="1603.72" xlink:href="#Dégradé_sans_nom_55"/><linearGradient id="Dégradé_sans_nom_55-20" x1="625.17" y1="1568.69" x2="617.27" y2="1564.13" xlink:href="#Dégradé_sans_nom_55"/><linearGradient id="Dégradé_sans_nom_55-21" x1="676.16" y1="1568.69" x2="668.26" y2="1564.12" xlink:href="#Dégradé_sans_nom_55"/><linearGradient id="Dégradé_sans_nom_55-22" x1="625.55" y1="1529.08" x2="617.65" y2="1524.52" xlink:href="#Dégradé_sans_nom_55"/><linearGradient id="Dégradé_sans_nom_55-23" x1="676.54" y1="1529.08" x2="668.64" y2="1524.51" xlink:href="#Dégradé_sans_nom_55"/><linearGradient id="Dégradé_sans_nom_55-24" x1="1153.53" y1="1646.97" x2="1015.5" y2="1567.28" xlink:href="#Dégradé_sans_nom_55"/><linearGradient id="Dégradé_sans_nom_55-25" x1="1064.01" y1="1687.46" x2="1056.11" y2="1682.89" xlink:href="#Dégradé_sans_nom_55"/><linearGradient id="Dégradé_sans_nom_55-26" x1="1114.97" y1="1687.49" x2="1107.07" y2="1682.93" xlink:href="#Dégradé_sans_nom_55"/><linearGradient id="Dégradé_sans_nom_55-27" x1="1063.71" y1="1647.86" x2="1055.81" y2="1643.3" xlink:href="#Dégradé_sans_nom_55"/><linearGradient id="Dégradé_sans_nom_55-28" x1="1114.68" y1="1647.9" x2="1106.77" y2="1643.33" xlink:href="#Dégradé_sans_nom_55"/><linearGradient id="Dégradé_sans_nom_55-29" x1="1063.85" y1="1608.28" x2="1055.95" y2="1603.72" xlink:href="#Dégradé_sans_nom_55"/><linearGradient id="Dégradé_sans_nom_55-30" x1="1114.84" y1="1608.28" x2="1106.94" y2="1603.71" xlink:href="#Dégradé_sans_nom_55"/><linearGradient id="Dégradé_sans_nom_55-31" x1="1063.56" y1="1568.68" x2="1055.65" y2="1564.12" xlink:href="#Dégradé_sans_nom_55"/><linearGradient id="Dégradé_sans_nom_55-32" x1="1114.54" y1="1568.68" x2="1106.64" y2="1564.12" xlink:href="#Dégradé_sans_nom_55"/><linearGradient id="Dégradé_sans_nom_55-33" x1="1063.94" y1="1529.07" x2="1056.04" y2="1524.51" xlink:href="#Dégradé_sans_nom_55"/><linearGradient id="Dégradé_sans_nom_55-34" x1="1114.93" y1="1529.07" x2="1107.03" y2="1524.51" xlink:href="#Dégradé_sans_nom_55"/><linearGradient id="Dégradé_sans_nom_55-35" x1="-161.48" y1="1647" x2="-299.51" y2="1567.31" xlink:href="#Dégradé_sans_nom_55"/><linearGradient id="Dégradé_sans_nom_55-36" x1="-251.15" y1="1687.48" x2="-259.05" y2="1682.92" xlink:href="#Dégradé_sans_nom_55"/><linearGradient id="Dégradé_sans_nom_55-37" x1="-200.16" y1="1687.47" x2="-208.06" y2="1682.91" xlink:href="#Dégradé_sans_nom_55"/><linearGradient id="Dégradé_sans_nom_55-38" x1="-251.45" y1="1647.88" x2="-259.35" y2="1643.32" xlink:href="#Dégradé_sans_nom_55"/><linearGradient id="Dégradé_sans_nom_55-39" x1="-200.46" y1="1647.88" x2="-208.36" y2="1643.31" xlink:href="#Dégradé_sans_nom_55"/><linearGradient id="Dégradé_sans_nom_55-40" x1="-251.28" y1="1608.26" x2="-259.18" y2="1603.7" xlink:href="#Dégradé_sans_nom_55"/><linearGradient id="Dégradé_sans_nom_55-41" x1="-200.32" y1="1608.3" x2="-208.22" y2="1603.74" xlink:href="#Dégradé_sans_nom_55"/><linearGradient id="Dégradé_sans_nom_55-42" x1="-251.58" y1="1568.66" x2="-259.48" y2="1564.1" xlink:href="#Dégradé_sans_nom_55"/><linearGradient id="Dégradé_sans_nom_55-43" x1="-200.62" y1="1568.7" x2="-208.52" y2="1564.14" xlink:href="#Dégradé_sans_nom_55"/><linearGradient id="Dégradé_sans_nom_55-44" x1="-251.22" y1="1529.1" x2="-259.12" y2="1524.54" xlink:href="#Dégradé_sans_nom_55"/><linearGradient id="Dégradé_sans_nom_55-45" x1="-200.23" y1="1529.09" x2="-208.13" y2="1524.53" xlink:href="#Dégradé_sans_nom_55"/><linearGradient id="Dégradé_sans_nom_11" x1="647" y1="1676.04" x2="647" y2="1669" gradientTransform="matrix(1, 0, 0, -1, 564, 2394)" gradientUnits="userSpaceOnUse"><stop offset="0"/><stop offset="1" stop-opacity="0"/></linearGradient><linearGradient id="Dégradé_sans_nom_11-2" x1="1085" y1="1676.04" x2="1085" y2="1669" xlink:href="#Dégradé_sans_nom_11"/><linearGradient id="Dégradé_sans_nom_11-3" x1="208" y1="1676.04" x2="208" y2="1669" xlink:href="#Dégradé_sans_nom_11"/><linearGradient id="Dégradé_sans_nom_11-4" x1="-230" y1="1676.04" x2="-230" y2="1669" xlink:href="#Dégradé_sans_nom_11"/><linearGradient id="Dégradé_sans_nom_3" x1="1118.76" y1="2103.44" x2="-330.76" y2="1266.56" gradientTransform="matrix(1, 0, 0, -1, 564, 2394)" gradientUnits="userSpaceOnUse"><stop offset="0" stop-color="#999"/><stop offset="0.49" stop-color="#767676"/><stop offset="1" stop-color="#4d4d4d"/></linearGradient><linearGradient id="Dégradé_sans_nom_3-2" x1="1118.76" y1="1943.44" x2="-330.76" y2="1106.56" xlink:href="#Dégradé_sans_nom_3"/><linearGradient id="Dégradé_sans_nom_11-5" x1="-898.19" y1="-733.77" x2="-2317.45" y2="-1553.18" gradientTransform="matrix(1.07, 0, -1.5, 0.93, 902.68, 1956)" xlink:href="#Dégradé_sans_nom_11"/></defs><title>Barrières2</title><g id="Barriere2"><polygon id="tapis_roulant" data-name="tapis roulant" class="cls-1" points="-2 868 1714.6 868 1918 868 1918 1080 -2 1080 -2 868"/><g id="barriere_arriere" data-name="barriere arriere"><path class="cls-2" d="M809.1,883H735V694.4a7.4,7.4,0,0,1,7.4-7.4h59.2a7.4,7.4,0,0,1,7.4,7.4V883Z"/><circle class="cls-3" cx="747.3" cy="708.8" r="4.6"/><circle class="cls-4" cx="798.3" cy="708.8" r="4.6"/><circle class="cls-5" cx="747" cy="748.4" r="4.6"/><circle class="cls-6" cx="798" cy="748.4" r="4.6"/><circle class="cls-7" cx="747.1" cy="788" r="4.6"/><circle class="cls-8" cx="798.1" cy="788" r="4.6"/><circle class="cls-9" cx="746.8" cy="827.6" r="4.6"/><circle class="cls-10" cx="797.8" cy="827.6" r="4.6"/><circle class="cls-11" cx="747.2" cy="867.2" r="4.6"/><circle class="cls-12" cx="798.2" cy="867.2" r="4.6"/><path class="cls-13" d="M1248.1,883H1174V694.4a7.4,7.4,0,0,1,7.4-7.4h59.2a7.4,7.4,0,0,1,7.4,7.4V883Z"/><circle class="cls-14" cx="1185.7" cy="708.8" r="4.6"/><circle class="cls-15" cx="1236.7" cy="708.8" r="4.6"/><circle class="cls-16" cx="1185.4" cy="748.4" r="4.6"/><circle class="cls-17" cx="1236.4" cy="748.4" r="4.6"/><circle class="cls-18" cx="1185.5" cy="788" r="4.6"/><circle class="cls-19" cx="1236.5" cy="788" r="4.6"/><circle class="cls-20" cx="1185.2" cy="827.6" r="4.6"/><circle class="cls-21" cx="1236.2" cy="827.6" r="4.6"/><circle class="cls-22" cx="1185.6" cy="867.2" r="4.6"/><circle class="cls-23" cx="1236.6" cy="867.2" r="4.6"/><path class="cls-24" d="M1686.1,883H1612V694.4a7.4,7.4,0,0,1,7.4-7.4h59.2a7.4,7.4,0,0,1,7.4,7.4V883Z"/><circle class="cls-25" cx="1624.1" cy="708.8" r="4.6"/><circle class="cls-26" cx="1675" cy="708.8" r="4.6"/><circle class="cls-27" cx="1623.8" cy="748.4" r="4.6"/><circle class="cls-28" cx="1674.7" cy="748.4" r="4.6"/><circle class="cls-29" cx="1623.9" cy="788" r="4.6"/><circle class="cls-30" cx="1674.9" cy="788" r="4.6"/><circle class="cls-31" cx="1623.6" cy="827.6" r="4.6"/><circle class="cls-32" cx="1674.6" cy="827.6" r="4.6"/><circle class="cls-33" cx="1624" cy="867.2" r="4.6"/><circle class="cls-34" cx="1675" cy="867.2" r="4.6"/><path class="cls-35" d="M371,883H297V694.4a7.4,7.4,0,0,1,7.4-7.4h59.2a7.4,7.4,0,0,1,7.4,7.4Z"/><circle class="cls-36" cx="308.9" cy="708.8" r="4.6"/><circle class="cls-37" cx="359.9" cy="708.8" r="4.6"/><circle class="cls-38" cx="308.6" cy="748.4" r="4.6"/><circle class="cls-39" cx="359.6" cy="748.4" r="4.6"/><circle class="cls-40" cx="308.8" cy="788" r="4.6"/><circle class="cls-41" cx="359.7" cy="788" r="4.6"/><circle class="cls-42" cx="308.5" cy="827.6" r="4.6"/><circle class="cls-43" cx="359.4" cy="827.6" r="4.6"/><circle class="cls-44" cx="308.8" cy="867.2" r="4.6"/><circle class="cls-45" cx="359.8" cy="867.2" r="4.6"/><rect class="cls-46" x="1174" y="718" width="74" height="7"/><rect class="cls-47" x="1612" y="718" width="74" height="7"/><rect class="cls-48" x="735" y="718" width="74" height="7"/><rect class="cls-49" x="297" y="718" width="74" height="7"/><rect class="cls-50" x="-2" y="698" width="1920" height="22"/><rect class="cls-51" x="-2" y="858" width="1920" height="22"/><circle class="cls-14" cx="1185.7" cy="708.8" r="4.6"/><circle class="cls-15" cx="1236.7" cy="708.8" r="4.6"/><circle class="cls-3" cx="747.3" cy="708.8" r="4.6"/><circle class="cls-4" cx="798.3" cy="708.8" r="4.6"/><circle class="cls-25" cx="1624.1" cy="708.8" r="4.6"/><circle class="cls-26" cx="1675" cy="708.8" r="4.6"/><circle class="cls-36" cx="308.9" cy="708.8" r="4.6"/><circle class="cls-37" cx="359.9" cy="708.8" r="4.6"/></g><path id="ombre_barriere" data-name="ombre barriere" class="cls-52" d="M1611.32,906l249.21.81L1827.87,927H1579.7l-4.5,1.4c-6.1,3.8-19.1,6.6-19.1,6.6l-63.65-.18c-4,0-2.73-2.82,2.81-6.27l4.09-2.55-354.81-1.24-4.29,2.67c-5.81,3.62-14,6.57-18.19,6.57l-64.38-.2c-4.44,0-3-3.13,3.14-7l4.54-2.83-351.42-1.24-4.29,2.67c-5.81,3.62-14,6.57-18.19,6.57l-64.21-.18c-4,0-2.73-2.82,2.81-6.27l4.09-2.55-370.81-1.24-4.29,2.67c-5.81,3.62-14,6.57-18.19,6.57l-64.38-.2c-4.44,0-3-3.13,3.14-7l4.54-2.83L-157,919.9l32.2-19.9,340.6,1.12,7.83-4.88L274.1,865l-341.53-1.09,16-9.91,341.17,1,79.7,1,370.8,1,79.7,1,350.8,1h79.7l354.8,1h79.7l248.55.81L1917.05,871l-247.67-.82-50.61,31.33ZM354.72,865.71l-49.31,30.52L297.75,901l368.63,1.29,7.66-4.77L723.35,867Zm450.34,1-49.31,30.52L748.09,902l348.75,1.29,7.66-4.77L1153.81,868ZM1588.29,870l-352.72-1.29-49.31,30.52L1178.6,904l352.73,1.29,7.65-4.77Z"/></g></svg>