<svg id="Calque_1" data-name="Calque 1" xmlns="http://www.w3.org/2000/svg" xmlns:xlink="http://www.w3.org/1999/xlink" viewBox="0 0 1920 1080"><defs><style>.cls-1{opacity:0.4;fill:url(#Dégradé_sans_nom_11);}.cls-1,.cls-10,.cls-11,.cls-4,.cls-5,.cls-6,.cls-7,.cls-8,.cls-9{isolation:isolate;}.cls-2{fill:url(#Dégradé_sans_nom_3);}.cls-3{fill:url(#Dégradé_sans_nom_3-2);}.cls-10,.cls-11,.cls-4,.cls-5,.cls-6,.cls-7,.cls-8,.cls-9{opacity:0.5;}.cls-4{fill:url(#Dégradé_sans_nom_11-2);}.cls-5{fill:url(#Dégradé_sans_nom_11-3);}.cls-6{fill:url(#Dégradé_sans_nom_11-4);}.cls-7{fill:url(#Dégradé_sans_nom_11-5);}.cls-8{fill:url(#Dégradé_sans_nom_11-6);}.cls-9{fill:url(#Dégradé_sans_nom_11-7);}.cls-10{fill:url(#Dégradé_sans_nom_11-8);}.cls-11{fill:url(#Dégradé_sans_nom_11-9);}.cls-12{fill:url(#Dégradé_sans_nom_55);}.cls-13{fill:url(#Dégradé_sans_nom_55-2);}.cls-14{fill:url(#Dégradé_sans_nom_55-3);}.cls-15{fill:url(#Dégradé_sans_nom_55-4);}.cls-16{fill:url(#Dégradé_sans_nom_55-5);}.cls-17{fill:url(#Dégradé_sans_nom_55-6);}.cls-18{fill:url(#Dégradé_sans_nom_55-7);}.cls-19{fill:url(#Dégradé_sans_nom_55-8);}.cls-20{fill:url(#Dégradé_sans_nom_55-9);}.cls-21{fill:url(#Dégradé_sans_nom_55-10);}.cls-22{fill:url(#Dégradé_sans_nom_55-11);}.cls-23{fill:url(#Dégradé_sans_nom_55-12);}.cls-24{fill:url(#Dégradé_sans_nom_55-13);}.cls-25{fill:url(#Dégradé_sans_nom_55-14);}.cls-26{fill:url(#Dégradé_sans_nom_55-15);}.cls-27{fill:url(#Dégradé_sans_nom_55-16);}.cls-28{fill:url(#Dégradé_sans_nom_55-17);}.cls-29{fill:url(#Dégradé_sans_nom_55-18);}.cls-30{fill:url(#Dégradé_sans_nom_55-19);}.cls-31{fill:url(#Dégradé_sans_nom_55-20);}.cls-32{fill:url(#Dégradé_sans_nom_55-21);}.cls-33{fill:url(#Dégradé_sans_nom_55-22);}.cls-34{fill:url(#Dégradé_sans_nom_55-23);}.cls-35{fill:url(#Dégradé_sans_nom_55-24);}.cls-36{fill:url(#Dégradé_sans_nom_55-25);}.cls-37{fill:url(#Dégradé_sans_nom_55-26);}.cls-38{fill:url(#Dégradé_sans_nom_55-27);}.cls-39{fill:url(#Dégradé_sans_nom_55-28);}.cls-40{fill:url(#Dégradé_sans_nom_55-29);}.cls-41{fill:url(#Dégradé_sans_nom_55-30);}.cls-42{fill:url(#Dégradé_sans_nom_55-31);}.cls-43{fill:url(#Dégradé_sans_nom_55-32);}.cls-44{fill:url(#Dégradé_sans_nom_55-33);}.cls-45{fill:url(#Dégradé_sans_nom_55-34);}.cls-46{fill:url(#Dégradé_sans_nom_55-35);}.cls-47{fill:url(#Dégradé_sans_nom_55-36);}.cls-48{fill:url(#Dégradé_sans_nom_55-37);}.cls-49{fill:url(#Dégradé_sans_nom_55-38);}.cls-50{fill:url(#Dégradé_sans_nom_55-39);}.cls-51{fill:url(#Dégradé_sans_nom_55-40);}.cls-52{fill:url(#Dégradé_sans_nom_55-41);}.cls-53{fill:url(#Dégradé_sans_nom_55-42);}.cls-54{fill:url(#Dégradé_sans_nom_55-43);}.cls-55{fill:url(#Dégradé_sans_nom_55-44);}</style><linearGradient id="Dégradé_sans_nom_11" x1="-898.19" y1="-733.77" x2="-2317.45" y2="-1553.18" gradientTransform="matrix(1.07, 0, -1.5, 0.93, 902.68, 1956)" gradientUnits="userSpaceOnUse"><stop offset="0"/><stop offset="1" stop-opacity="0"/></linearGradient><linearGradient id="Dégradé_sans_nom_3" x1="1118.76" y1="2025.44" x2="-330.76" y2="1188.56" gradientTransform="matrix(1, 0, 0, -1, 564, 2394)" gradientUnits="userSpaceOnUse"><stop offset="0" stop-color="#999"/><stop offset="0.49" stop-color="#767676"/><stop offset="1" stop-color="#4d4d4d"/></linearGradient><linearGradient id="Dégradé_sans_nom_3-2" x1="1116.14" y1="1864.79" x2="-331.14" y2="1029.21" xlink:href="#Dégradé_sans_nom_3"/><linearGradient id="Dégradé_sans_nom_11-2" x1="-658.66" y1="-385.1" x2="-658.66" y2="-392.14" gradientTransform="matrix(0, 1, 1, 0, 1080.1, 1445.66)" xlink:href="#Dégradé_sans_nom_11"/><linearGradient id="Dégradé_sans_nom_11-3" x1="2011.35" y1="742.62" x2="2011.35" y2="735.59" gradientTransform="matrix(0, -1, -1, 0, 1509.57, 2798.35)" xlink:href="#Dégradé_sans_nom_11"/><linearGradient id="Dégradé_sans_nom_11-4" x1="2011.35" y1="1181.55" x2="2011.35" y2="1174.62" gradientTransform="matrix(0, -1, -1, 0, 1509.57, 2798.35)" xlink:href="#Dégradé_sans_nom_11"/><linearGradient id="Dégradé_sans_nom_11-5" x1="-658.66" y1="-824.13" x2="-658.66" y2="-831.06" gradientTransform="matrix(0, 1, 1, 0, 1080.1, 1445.66)" xlink:href="#Dégradé_sans_nom_11"/><linearGradient id="Dégradé_sans_nom_11-6" x1="-658.66" y1="52.93" x2="-658.66" y2="45.9" gradientTransform="matrix(0, 1, 1, 0, 1080.1, 1445.66)" xlink:href="#Dégradé_sans_nom_11"/><linearGradient id="Dégradé_sans_nom_11-7" x1="2011.35" y1="304.59" x2="2011.35" y2="297.56" gradientTransform="matrix(0, -1, -1, 0, 1509.57, 2798.35)" xlink:href="#Dégradé_sans_nom_11"/><linearGradient id="Dégradé_sans_nom_11-8" x1="-658.66" y1="491.91" x2="-658.66" y2="484.88" gradientTransform="matrix(0, 1, 1, 0, 1080.1, 1445.66)" xlink:href="#Dégradé_sans_nom_11"/><linearGradient id="Dégradé_sans_nom_11-9" x1="2011.35" y1="-133.39" x2="2011.35" y2="-140.42" gradientTransform="matrix(0, -1, -1, 0, 1509.57, 2798.35)" xlink:href="#Dégradé_sans_nom_11"/><linearGradient id="Dégradé_sans_nom_55" x1="235.53" y1="1567.97" x2="97.5" y2="1488.28" gradientTransform="matrix(1, 0, 0, -1, 564, 2394)" gradientUnits="userSpaceOnUse"><stop offset="0" stop-color="#999"/><stop offset="0.01" stop-color="#969696"/><stop offset="0.15" stop-color="#7b7b7b"/><stop offset="0.3" stop-color="#676767"/><stop offset="0.47" stop-color="#585858"/><stop offset="0.68" stop-color="#505050"/><stop offset="1" stop-color="#4d4d4d"/></linearGradient><linearGradient id="Dégradé_sans_nom_55-2" x1="145.43" y1="1609.17" x2="137.52" y2="1604.6" xlink:href="#Dégradé_sans_nom_55"/><linearGradient id="Dégradé_sans_nom_55-3" x1="196.42" y1="1609.16" x2="188.51" y2="1604.6" xlink:href="#Dégradé_sans_nom_55"/><linearGradient id="Dégradé_sans_nom_55-4" x1="145.13" y1="1569.57" x2="137.23" y2="1565.01" xlink:href="#Dégradé_sans_nom_55"/><linearGradient id="Dégradé_sans_nom_55-5" x1="196.12" y1="1569.56" x2="188.22" y2="1565" xlink:href="#Dégradé_sans_nom_55"/><linearGradient id="Dégradé_sans_nom_55-6" x1="145.27" y1="1529.99" x2="137.37" y2="1525.43" xlink:href="#Dégradé_sans_nom_55"/><linearGradient id="Dégradé_sans_nom_55-7" x1="196.26" y1="1529.99" x2="188.36" y2="1525.42" xlink:href="#Dégradé_sans_nom_55"/><linearGradient id="Dégradé_sans_nom_55-8" x1="144.97" y1="1490.39" x2="137.07" y2="1485.83" xlink:href="#Dégradé_sans_nom_55"/><linearGradient id="Dégradé_sans_nom_55-9" x1="195.96" y1="1490.39" x2="188.06" y2="1485.83" xlink:href="#Dégradé_sans_nom_55"/><linearGradient id="Dégradé_sans_nom_55-10" x1="145.36" y1="1450.78" x2="137.46" y2="1446.22" xlink:href="#Dégradé_sans_nom_55"/><linearGradient id="Dégradé_sans_nom_55-11" x1="196.35" y1="1450.78" x2="188.45" y2="1446.22" xlink:href="#Dégradé_sans_nom_55"/><linearGradient id="Dégradé_sans_nom_55-12" x1="673.53" y1="1567.97" x2="535.5" y2="1488.28" xlink:href="#Dégradé_sans_nom_55"/><linearGradient id="Dégradé_sans_nom_55-13" x1="583.81" y1="1609.16" x2="575.91" y2="1604.6" xlink:href="#Dégradé_sans_nom_55"/><linearGradient id="Dégradé_sans_nom_55-14" x1="634.78" y1="1609.2" x2="626.87" y2="1604.63" xlink:href="#Dégradé_sans_nom_55"/><linearGradient id="Dégradé_sans_nom_55-15" x1="583.52" y1="1569.56" x2="575.61" y2="1565" xlink:href="#Dégradé_sans_nom_55"/><linearGradient id="Dégradé_sans_nom_55-16" x1="634.51" y1="1569.55" x2="626.6" y2="1564.99" xlink:href="#Dégradé_sans_nom_55"/><linearGradient id="Dégradé_sans_nom_55-17" x1="583.66" y1="1529.98" x2="575.75" y2="1525.42" xlink:href="#Dégradé_sans_nom_55"/><linearGradient id="Dégradé_sans_nom_55-18" x1="634.65" y1="1529.98" x2="626.74" y2="1525.42" xlink:href="#Dégradé_sans_nom_55"/><linearGradient id="Dégradé_sans_nom_55-19" x1="583.36" y1="1490.39" x2="575.46" y2="1485.82" xlink:href="#Dégradé_sans_nom_55"/><linearGradient id="Dégradé_sans_nom_55-20" x1="634.35" y1="1490.38" x2="626.45" y2="1485.82" xlink:href="#Dégradé_sans_nom_55"/><linearGradient id="Dégradé_sans_nom_55-21" x1="583.74" y1="1450.78" x2="575.84" y2="1446.21" xlink:href="#Dégradé_sans_nom_55"/><linearGradient id="Dégradé_sans_nom_55-22" x1="634.73" y1="1450.77" x2="626.83" y2="1446.21" xlink:href="#Dégradé_sans_nom_55"/><linearGradient id="Dégradé_sans_nom_55-23" x1="1111.53" y1="1567.97" x2="973.5" y2="1488.28" xlink:href="#Dégradé_sans_nom_55"/><linearGradient id="Dégradé_sans_nom_55-24" x1="1022.17" y1="1609.19" x2="1014.27" y2="1604.63" xlink:href="#Dégradé_sans_nom_55"/><linearGradient id="Dégradé_sans_nom_55-25" x1="1073.16" y1="1609.19" x2="1065.26" y2="1604.63" xlink:href="#Dégradé_sans_nom_55"/><linearGradient id="Dégradé_sans_nom_55-26" x1="1021.88" y1="1569.6" x2="1013.98" y2="1565.04" xlink:href="#Dégradé_sans_nom_55"/><linearGradient id="Dégradé_sans_nom_55-27" x1="1072.87" y1="1569.59" x2="1064.97" y2="1565.03" xlink:href="#Dégradé_sans_nom_55"/><linearGradient id="Dégradé_sans_nom_55-28" x1="1022.04" y1="1529.98" x2="1014.14" y2="1525.41" xlink:href="#Dégradé_sans_nom_55"/><linearGradient id="Dégradé_sans_nom_55-29" x1="1073.03" y1="1529.97" x2="1065.13" y2="1525.41" xlink:href="#Dégradé_sans_nom_55"/><linearGradient id="Dégradé_sans_nom_55-30" x1="1021.75" y1="1490.38" x2="1013.84" y2="1485.82" xlink:href="#Dégradé_sans_nom_55"/><linearGradient id="Dégradé_sans_nom_55-31" x1="1072.74" y1="1490.37" x2="1064.83" y2="1485.81" xlink:href="#Dégradé_sans_nom_55"/><linearGradient id="Dégradé_sans_nom_55-32" x1="1022.13" y1="1450.77" x2="1014.23" y2="1446.21" xlink:href="#Dégradé_sans_nom_55"/><linearGradient id="Dégradé_sans_nom_55-33" x1="1073.12" y1="1450.76" x2="1065.22" y2="1446.2" xlink:href="#Dégradé_sans_nom_55"/><linearGradient id="Dégradé_sans_nom_55-34" x1="-203.47" y1="1567.97" x2="-341.5" y2="1488.28" xlink:href="#Dégradé_sans_nom_55"/><linearGradient id="Dégradé_sans_nom_55-35" x1="-292.96" y1="1609.17" x2="-300.86" y2="1604.61" xlink:href="#Dégradé_sans_nom_55"/><linearGradient id="Dégradé_sans_nom_55-36" x1="-241.97" y1="1609.17" x2="-249.87" y2="1604.61" xlink:href="#Dégradé_sans_nom_55"/><linearGradient id="Dégradé_sans_nom_55-37" x1="-293.26" y1="1569.58" x2="-301.16" y2="1565.01" xlink:href="#Dégradé_sans_nom_55"/><linearGradient id="Dégradé_sans_nom_55-38" x1="-242.27" y1="1569.57" x2="-250.17" y2="1565.01" xlink:href="#Dégradé_sans_nom_55"/><linearGradient id="Dégradé_sans_nom_55-39" x1="-293.09" y1="1529.96" x2="-300.99" y2="1525.39" xlink:href="#Dégradé_sans_nom_55"/><linearGradient id="Dégradé_sans_nom_55-40" x1="-242.13" y1="1529.99" x2="-250.03" y2="1525.43" xlink:href="#Dégradé_sans_nom_55"/><linearGradient id="Dégradé_sans_nom_55-41" x1="-293.39" y1="1490.36" x2="-301.29" y2="1485.8" xlink:href="#Dégradé_sans_nom_55"/><linearGradient id="Dégradé_sans_nom_55-42" x1="-242.42" y1="1490.4" x2="-250.32" y2="1485.84" xlink:href="#Dégradé_sans_nom_55"/><linearGradient id="Dégradé_sans_nom_55-43" x1="-293.03" y1="1450.79" x2="-300.93" y2="1446.23" xlink:href="#Dégradé_sans_nom_55"/><linearGradient id="Dégradé_sans_nom_55-44" x1="-242.04" y1="1450.79" x2="-249.94" y2="1446.22" xlink:href="#Dégradé_sans_nom_55"/></defs><title>Barrières1</title><g id="Barriere1"><path id="ombre_barriere" data-name="ombre barriere" class="cls-1" d="M1611.32,906l249.21.81L1827.87,927H1579.7l-4.5,1.4c-6.1,3.8-19.1,6.6-19.1,6.6l-63.65-.18c-4,0-2.73-2.82,2.81-6.27l4.09-2.55-354.81-1.24-4.29,2.67c-5.81,3.62-14,6.57-18.19,6.57l-64.38-.2c-4.44,0-3-3.13,3.14-7l4.54-2.83-351.42-1.24-4.29,2.67c-5.81,3.62-14,6.57-18.19,6.57l-64.21-.18c-4,0-2.73-2.82,2.81-6.27l4.09-2.55-370.81-1.24-4.29,2.67c-5.81,3.62-14,6.57-18.19,6.57l-64.38-.2c-4.44,0-3-3.13,3.14-7l4.54-2.83L-157,919.9l32.2-19.9,340.6,1.12,7.83-4.88L274.1,865l-341.53-1.09,16-9.91,341.17,1,79.7,1,370.8,1,79.7,1,350.8,1h79.7l354.8,1h79.7l248.55.81L1917.05,871l-247.67-.82-50.61,31.33ZM354.72,865.71l-49.31,30.52L297.75,901l368.63,1.29,7.66-4.77L723.35,867Zm450.34,1-49.31,30.52L748.09,902l348.75,1.29,7.66-4.77L1153.81,868ZM1588.29,870l-352.72-1.29-49.31,30.52L1178.6,904l352.73,1.29,7.65-4.77Z"/><g id="barriere_avant" data-name="barriere avant"><rect class="cls-2" x="-2" y="776" width="1920" height="22"/><rect class="cls-3" x="-2" y="936" width="1917" height="22"/><polygon class="cls-4" points="688 798 688 776 695 776 695 798 688 798"/><polygon class="cls-5" points="774 776 774 798 767 798 767 776 774 776"/><polygon class="cls-6" points="335 776 335 798 328 798 328 776 335 776"/><polygon class="cls-7" points="249 798 249 776 256 776 256 798 249 798"/><polygon class="cls-8" points="1126 798 1126 776 1133 776 1133 798 1126 798"/><polygon class="cls-9" points="1212 776 1212 798 1205 798 1205 776 1212 776"/><polygon class="cls-10" points="1565 798 1565 776 1572 776 1572 798 1565 798"/><polygon class="cls-11" points="1650 776 1650 798 1643 798 1643 776 1650 776"/><path class="cls-12" d="M768.1,962H694V773.4a7.4,7.4,0,0,1,7.4-7.4h59.2a7.4,7.4,0,0,1,7.4,7.4V962Z"/><circle class="cls-13" cx="705.5" cy="787.1" r="4.6"/><circle class="cls-14" cx="756.5" cy="787.1" r="4.6"/><circle class="cls-15" cx="705.2" cy="826.7" r="4.6"/><circle class="cls-16" cx="756.2" cy="826.7" r="4.6"/><circle class="cls-17" cx="705.3" cy="866.3" r="4.6"/><circle class="cls-18" cx="756.3" cy="866.3" r="4.6"/><circle class="cls-19" cx="705" cy="905.9" r="4.6"/><circle class="cls-20" cx="756" cy="905.9" r="4.6"/><circle class="cls-21" cx="705.4" cy="945.5" r="4.6"/><circle class="cls-22" cx="756.4" cy="945.5" r="4.6"/><path class="cls-23" d="M1206.1,962H1132V773.4a7.4,7.4,0,0,1,7.4-7.4h59.2a7.4,7.4,0,0,1,7.4,7.4V962Z"/><circle class="cls-24" cx="1143.9" cy="787.1" r="4.6"/><circle class="cls-25" cx="1194.8" cy="787.1" r="4.6"/><circle class="cls-26" cx="1143.6" cy="826.7" r="4.6"/><circle class="cls-27" cx="1194.6" cy="826.7" r="4.6"/><circle class="cls-28" cx="1143.7" cy="866.3" r="4.6"/><circle class="cls-29" cx="1194.7" cy="866.3" r="4.6"/><circle class="cls-30" cx="1143.4" cy="905.9" r="4.6"/><circle class="cls-31" cx="1194.4" cy="905.9" r="4.6"/><circle class="cls-32" cx="1143.8" cy="945.5" r="4.6"/><circle class="cls-33" cx="1194.8" cy="945.5" r="4.6"/><path class="cls-34" d="M1644.1,962H1570V773.4a7.4,7.4,0,0,1,7.4-7.4h59.2a7.4,7.4,0,0,1,7.4,7.4V962Z"/><circle class="cls-35" cx="1582.2" cy="787.1" r="4.6"/><circle class="cls-36" cx="1633.2" cy="787.1" r="4.6"/><circle class="cls-37" cx="1581.9" cy="826.7" r="4.6"/><circle class="cls-38" cx="1632.9" cy="826.7" r="4.6"/><circle class="cls-39" cx="1582.1" cy="866.3" r="4.6"/><circle class="cls-40" cx="1633.1" cy="866.3" r="4.6"/><circle class="cls-41" cx="1581.8" cy="905.9" r="4.6"/><circle class="cls-42" cx="1632.8" cy="905.9" r="4.6"/><circle class="cls-43" cx="1582.2" cy="945.5" r="4.6"/><circle class="cls-44" cx="1633.2" cy="945.5" r="4.6"/><path class="cls-45" d="M329.1,962H255V773.4a7.4,7.4,0,0,1,7.4-7.4h59.2a7.4,7.4,0,0,1,7.4,7.4V962Z"/><circle class="cls-46" cx="267.1" cy="787.1" r="4.6"/><circle class="cls-47" cx="318.1" cy="787.1" r="4.6"/><circle class="cls-48" cx="266.8" cy="826.7" r="4.6"/><circle class="cls-49" cx="317.8" cy="826.7" r="4.6"/><circle class="cls-50" cx="267" cy="866.3" r="4.6"/><circle class="cls-51" cx="317.9" cy="866.3" r="4.6"/><circle class="cls-52" cx="266.7" cy="905.9" r="4.6"/><circle class="cls-53" cx="317.6" cy="905.9" r="4.6"/><circle class="cls-54" cx="267" cy="945.5" r="4.6"/><circle class="cls-55" cx="318" cy="945.5" r="4.6"/></g></g></svg>